<svg width="600" height="803" viewBox="0 0 600 803" fill="none" xmlns="http://www.w3.org/2000/svg">
<path d="M0.70832 51.3807L44.0421 213.105L679.761 42.7642L636.428 -118.96L0.70832 51.3807Z" fill="#D9D9D9" fill-opacity="0.22"/>
<path d="M4.43163 -255.04L640.143 -84.6685L683.471 -246.387L47.7598 -416.759L4.43163 -255.04Z" fill="#D9D9D9" fill-opacity="0.22"/>
<path d="M204.113 -680.754L669.501 -215.345L787.875 -333.731L322.488 -799.14L204.113 -680.754Z" fill="#D9D9D9" fill-opacity="0.22"/>
<path d="M589.996 -949.352L760.351 -313.579L922.062 -356.909L751.707 -992.682L589.996 -949.352Z" fill="#D9D9D9" fill-opacity="0.22"/>
<path d="M194.764 480.375L313.147 598.763L778.502 133.361L660.12 14.9729L194.764 480.375Z" fill="#D9D9D9" fill-opacity="0.22"/>
<path d="M577.36 755.231L739.068 798.569L909.4 162.819L747.692 119.48L577.36 755.231Z" fill="#D9D9D9" fill-opacity="0.22"/>
<path d="M875.225 166.475L1045.58 802.249L1207.29 758.918L1036.94 123.145L875.225 166.475Z" fill="#D9D9D9" fill-opacity="0.22"/>
<path d="M1008.81 142.751L1474.2 608.16L1592.57 489.774L1127.18 24.3646L1008.81 142.751Z" fill="#D9D9D9" fill-opacity="0.22"/>
<path d="M1113.29 56.1299L1749 226.502L1792.32 64.783L1156.61 -105.589L1113.29 56.1299Z" fill="#D9D9D9" fill-opacity="0.22"/>
</svg>
