<svg width="967" height="691" viewBox="0 0 967 691" fill="none" xmlns="http://www.w3.org/2000/svg">
<path d="M236.007 2829.71C167.098 2766.53 109.684 2700.48 66.6288 2631.57C23.5924 2559.82 0.63961 2479.46 0.639606 2390.49C0.6396 2244.03 32.2183 2111.94 92.501 1991.34C152.786 1870.73 238.907 1764.48 350.866 1678.33L351.381 1677.94L350.866 1677.54C238.907 1591.39 152.786 1485.14 92.501 1364.54C32.2186 1243.93 0.63955 1108.97 0.639544 965.387C0.639536 781.592 46.5724 617.916 138.434 471.468C230.301 325.01 353.747 210.142 505.907 126.859C658.062 43.5793 827.444 0.500208 1014.06 0.5002L2162.49 0.50015L2162.49 522.42L1014.06 522.42C922.084 522.42 841.581 539.67 766.822 577.061C692.072 614.447 631.682 666.222 588.544 732.387C545.404 798.556 522.4 876.227 522.4 962.514C522.4 1048.8 545.405 1126.47 588.539 1195.51L588.544 1195.51C631.676 1261.67 692.059 1316.32 766.815 1353.71C838.7 1391.1 922.076 1411.23 1014.06 1411.23L2162.49 1411.23L2162.49 1933.15L1014.06 1933.15C922.074 1933.15 841.57 1953.28 766.815 1993.54C692.06 2030.93 631.675 2085.58 588.542 2154.61C545.403 2220.78 522.4 2298.45 522.4 2384.74C522.4 2468.16 545.408 2542.96 591.426 2609.13C637.427 2675.28 697.807 2729.93 772.568 2767.32C847.319 2804.71 930.693 2824.83 1022.68 2824.83L2162.49 2824.83L2162.49 3352.5L20.7462 3352.5L20.7461 2830.58L235.669 2830.58L236.954 2830.58L236.007 2829.71Z" stroke="#132238"/>
</svg>
