<svg width="326" height="36" viewBox="0 0 326 36" fill="none" xmlns="http://www.w3.org/2000/svg">
<g clip-path="url(#clip0_197_17210)">
<path fill-rule="evenodd" clip-rule="evenodd" d="M0.000111116 18.0646V18C-0.0389179 16.2727 0.275701 14.5554 0.925074 12.9512C1.57445 11.3471 2.54518 9.8892 3.77897 8.66509C5.01277 7.44098 6.48418 6.47591 8.10483 5.82785C9.72549 5.17978 11.462 4.86208 13.21 4.89383C15.0687 4.82621 16.9213 5.1427 18.6492 5.82307C20.3772 6.50344 21.9424 7.53272 23.2448 8.84505L20.3571 12.1248C19.4285 11.1585 18.3153 10.3837 17.0818 9.8451C15.8483 9.30653 14.519 9.01491 13.1708 8.98709C12.0166 9.00821 10.8785 9.25811 9.82385 9.72198C8.76923 10.1858 7.81958 10.8542 7.0312 11.6875C6.24282 12.5208 5.63176 13.5021 5.23423 14.5731C4.83671 15.6441 4.66082 16.7831 4.71699 17.9225V18C4.71699 22.9455 8.27097 26.9613 13.1838 26.9613C14.5713 26.9524 15.9417 26.6585 17.208 26.0984C18.4744 25.5382 19.6091 24.724 20.5401 23.7073L23.4277 26.5997C22.1418 28.0631 20.5426 29.2255 18.746 30.0027C16.9494 30.7799 15.0004 31.1524 13.0401 31.0933C11.3095 31.1145 9.59235 30.791 7.99107 30.142C6.3898 29.493 4.93727 28.5318 3.72019 27.3157C2.50312 26.0997 1.54645 24.6538 0.907295 23.0644C0.268141 21.4749 -0.0403946 19.7745 0.000111116 18.0646" fill="white"/>
<path fill-rule="evenodd" clip-rule="evenodd" d="M109.05 20.6858L104.62 10.5624L100.23 20.6858H109.05V20.6858ZM102.608 5.24243H106.789L118.052 30.7446H113.296L110.696 24.6241H98.5837L95.9444 30.7446H91.332L102.608 5.24243Z" fill="white"/>
<path fill-rule="evenodd" clip-rule="evenodd" d="M140.749 5.31995H145.256V26.5997H158.728V30.6542H140.749V5.33286" fill="white"/>
<path fill-rule="evenodd" clip-rule="evenodd" d="M181.711 5.31995H200.787V9.38738H186.219V16.2956H199.154V20.3501H186.219V30.6542H181.724V5.33286" fill="white"/>
<path fill-rule="evenodd" clip-rule="evenodd" d="M224.293 30.6543H228.788V5.33289H224.293V30.6543V30.6543Z" fill="white"/>
<path fill-rule="evenodd" clip-rule="evenodd" d="M265.034 17.8837C268.248 17.8837 270.299 16.218 270.299 13.6484V13.5839C270.299 10.8723 268.326 9.38733 264.994 9.38733H258.448V17.8837H265.034ZM253.94 5.33281H265.36C268.066 5.18577 270.722 6.09462 272.756 7.86365C274.17 9.33372 274.935 11.2981 274.885 13.3256V13.4031C274.938 15.1815 274.36 16.9221 273.25 18.3231C272.14 19.724 270.569 20.6969 268.81 21.0731L275.722 30.6542H270.378L264.08 21.822H258.448V30.6542H253.94V5.33281V5.33281Z" fill="white"/>
<path fill-rule="evenodd" clip-rule="evenodd" d="M298.705 5.31995H317.703V9.32281H303.213V15.9082H316.07V19.8852H303.213V26.6901H317.899V30.6671H298.705V5.33286" fill="white"/>
<path fill-rule="evenodd" clip-rule="evenodd" d="M323.517 27.6973H322.851V28.5625H323.53C323.595 28.5735 323.66 28.571 323.723 28.5549C323.786 28.5388 323.845 28.5097 323.896 28.4693C323.947 28.429 323.988 28.3784 324.017 28.321C324.047 28.2636 324.063 28.2006 324.066 28.1363C324.068 28.0702 324.054 28.0046 324.026 27.9445C323.998 27.8843 323.957 27.8312 323.906 27.789C323.854 27.7468 323.794 27.7166 323.729 27.7007C323.664 27.6848 323.596 27.6837 323.53 27.6973H323.517ZM323.975 28.924L324.706 29.9441H324.092L323.426 29.0015H322.851V29.9441H322.328V27.2325H323.543C323.672 27.2122 323.803 27.2192 323.928 27.2531C324.054 27.2869 324.17 27.3467 324.271 27.4286C324.371 27.5104 324.452 27.6124 324.509 27.7278C324.566 27.8432 324.598 27.9692 324.602 28.0976C324.613 28.2864 324.556 28.4729 324.441 28.6241C324.326 28.7754 324.161 28.8816 323.975 28.924V28.924ZM323.387 26.3415C322.921 26.3389 322.465 26.4731 322.076 26.7269C321.688 26.9807 321.385 27.3428 321.205 27.7673C321.025 28.1918 320.976 28.6595 321.065 29.1112C321.155 29.5629 321.378 29.9783 321.706 30.3046C322.034 30.631 322.453 30.8536 322.91 30.9443C323.367 31.0351 323.84 30.9898 324.271 30.8143C324.701 30.6387 325.069 30.3409 325.328 29.9584C325.587 29.5759 325.726 29.126 325.726 28.6657C325.729 28.3607 325.671 28.0579 325.555 27.7752C325.439 27.4926 325.267 27.2355 325.049 27.0192C324.831 26.8028 324.572 26.6315 324.287 26.5152C324.001 26.3988 323.695 26.3398 323.387 26.3415V26.3415ZM323.387 31.2482C323.043 31.25 322.702 31.1843 322.385 31.0552C322.067 30.926 321.778 30.7358 321.535 30.4957C321.292 30.2555 321.1 29.9701 320.969 29.6561C320.838 29.342 320.772 29.0054 320.773 28.6657C320.773 28.155 320.927 27.6557 321.214 27.231C321.501 26.8063 321.909 26.4753 322.387 26.2798C322.864 26.0844 323.39 26.0332 323.896 26.1329C324.403 26.2325 324.869 26.4785 325.235 26.8397C325.6 27.2008 325.849 27.661 325.95 28.1619C326.051 28.6629 325.999 29.1821 325.801 29.654C325.603 30.1259 325.268 30.5293 324.839 30.813C324.409 31.0968 323.904 31.2482 323.387 31.2482Z" fill="white"/>
<path fill-rule="evenodd" clip-rule="evenodd" d="M63.4365 -0.0129395L50.3965 7.43756V22.3127L63.4365 29.7632L76.4765 22.3127V7.43756L63.4365 -0.0129395ZM54.6299 19.911V9.83929L63.4365 4.80342L72.2561 9.83929V19.8981L63.4365 24.934L54.6299 19.8981V19.911Z" fill="white"/>
<path fill-rule="evenodd" clip-rule="evenodd" d="M39.46 13.6743V28.5494L52.513 35.9999L65.553 28.5494V13.6743L52.5261 6.22375L39.46 13.6743ZM43.6934 26.1348V16.076L52.513 11.053L61.3196 16.0889V26.1348L52.513 31.1707L43.6934 26.1348Z" fill="white"/>
</g>
<defs>
<clipPath id="clip0_197_17210">
<rect width="326" height="36" fill="white"/>
</clipPath>
</defs>
</svg>
