<svg width="282" height="64" viewBox="0 0 282 64" fill="none" xmlns="http://www.w3.org/2000/svg">
<path d="M43.5183 36.7678C43.5183 31.5518 40.4739 27.3598 35.571 25.6638C39.2883 23.9678 41.8839 20.4478 41.8839 15.9038C41.8839 8.79984 35.8914 3.83984 27.4314 3.83984H3.20508V9.88784C7.01849 9.88784 10.0949 12.9598 10.0949 16.7678C10.0949 20.5758 7.01849 23.6478 3.20508 23.6478V29.0878C7.01849 29.0878 10.0949 32.1598 10.0949 35.9678C10.0949 39.7758 7.01849 42.8478 3.20508 42.8478V49.4398H28.4889C37.1733 49.4398 43.4862 44.2878 43.4862 36.8318M16.2155 10.3998H26.1817C30.2514 10.3998 33.1676 13.0558 33.1676 16.7678C33.1676 20.4798 30.2514 23.0718 26.1817 23.0718H16.2155V10.3998V10.3998ZM16.2155 42.8158V29.0558H27.0789C31.5653 29.0558 34.6096 31.8398 34.6096 35.9038C34.6096 39.9678 31.5653 42.8158 27.0789 42.8158H16.2155V42.8158Z" fill="white"/>
<path d="M53.3566 1.47266C56.4009 1.47266 58.58 3.64866 58.58 6.68866C58.58 9.72866 56.4009 11.9047 53.3566 11.9047C50.3123 11.9047 48.1973 9.72866 48.1973 6.68866C48.1973 3.64866 50.3764 1.47266 53.3566 1.47266M48.9984 16.1927H57.6827V49.4087H48.9984V16.1607V16.1927Z" fill="white"/>
<path d="M74.5066 16.1596H83.7357V22.7516H74.5066V38.6236C74.5066 41.1516 76.5254 43.2636 79.057 43.2956C80.3709 43.2956 81.845 43.1036 83.4793 42.6876L84.6329 49.1836C81.9732 49.8556 79.4736 50.2076 77.1023 50.2076C70.4368 50.2076 65.8223 45.8556 65.8223 39.4876V8.57564C65.8223 7.39164 66.7836 6.43164 67.9693 6.43164H74.5066V16.1916V16.1596Z" fill="white"/>
<path d="M101.329 15.3609C105.206 15.3609 109.34 16.1609 113.538 17.6649L111.647 23.9049C108.314 22.6249 104.982 21.7929 102.001 21.7929C99.0213 21.7929 96.8422 23.2009 96.8422 25.3769C96.8422 31.3929 114.627 27.0089 114.627 39.8729C114.627 45.9209 109.18 50.1769 101.329 50.1769C97.2588 50.1769 92.7724 49.2809 88.0938 47.5209L89.9203 41.3449C93.7978 42.9129 97.451 43.7129 100.656 43.7129C103.86 43.7129 106.103 42.1449 106.103 39.8409C106.103 33.5369 88.3822 37.9529 88.3822 25.3449C88.3822 19.5209 93.6697 15.2969 101.361 15.2969" fill="white"/>
<path d="M128.469 16.1604H137.699V22.7524H128.469V38.6244C128.469 41.1524 130.488 43.2644 133.02 43.2964C134.334 43.2964 135.808 43.1044 137.442 42.6884L138.596 49.1844C135.936 49.8564 133.437 50.2084 131.065 50.2084C124.4 50.2084 119.785 45.8564 119.785 39.4884V8.57639C119.785 7.36039 120.779 6.40039 121.964 6.40039H128.469V16.1604Z" fill="white"/>
<path d="M183.621 16.1594H190.543L191.632 20.7034C194.292 17.2474 198.138 15.3594 202.56 15.3594C207.367 15.3594 211.308 17.6634 213.231 21.4714C216.275 17.5354 220.441 15.3594 225.248 15.3594C232.522 15.3594 237.682 20.3834 237.682 27.4874V49.3754H228.997V28.8314C228.997 25.1194 226.338 22.4634 222.556 22.4634C218.134 22.4634 215.026 25.7914 215.026 30.5274V49.3754H206.341V28.8314C206.341 25.1194 203.682 22.4634 199.964 22.4634C195.478 22.4634 192.37 25.7914 192.37 30.5274V49.3754H183.685V16.1594H183.621Z" fill="white"/>
<path d="M244.86 16.1594H251.782L252.872 20.4474C255.307 17.1834 259.12 15.3594 263.543 15.3594C272.515 15.3594 278.828 22.5594 278.828 32.7994C278.828 43.0394 272.515 50.2074 263.543 50.2074C259.473 50.2074 255.948 48.5754 253.544 45.5994V60.3834C253.544 61.5674 252.583 62.5594 251.365 62.5594H244.828V16.1594H244.86ZM261.299 22.2074C256.685 22.2074 253.416 25.6634 253.416 30.5594V35.0394C253.416 39.8394 256.685 43.3914 261.299 43.3914C266.395 43.3914 269.984 38.9754 269.984 32.8314C269.984 26.6874 266.395 22.2394 261.299 22.2394" fill="white"/>
<path d="M167.246 35.0074C167.246 39.8074 163.977 43.3594 159.363 43.3594C154.268 43.3594 150.679 38.9434 150.679 32.7994C150.679 26.6554 154.268 22.2074 159.363 22.2074C163.977 22.2074 167.246 25.6634 167.246 30.5594V35.0394V35.0074ZM175.802 33.0874V16.1594H168.88L167.791 20.4474C165.355 17.1834 161.542 15.3594 157.12 15.3594C148.147 15.3594 141.834 22.5594 141.834 32.7994C141.834 43.0394 148.147 50.2074 157.12 50.2074C157.632 50.2074 158.145 50.2074 158.658 50.1114C162.407 49.7274 165.612 47.9674 167.791 45.1194L168.88 49.4074H175.802V33.1194V33.0874Z" fill="white"/>
</svg>
