<svg width="326" height="62" viewBox="0 0 326 62" fill="none" xmlns="http://www.w3.org/2000/svg">
<g clip-path="url(#clip0_197_17192)">
<path d="M106.697 18.2865C107.546 18.8796 108.234 19.6791 108.699 20.6115C109.164 21.5439 109.39 22.5795 109.356 23.6233C109.387 25.1271 108.919 26.5979 108.025 27.8C107.095 28.9909 105.78 29.8123 104.311 30.1201C106.066 30.3962 107.671 31.2826 108.85 32.627C109.976 33.9897 110.566 35.7246 110.508 37.5001C110.549 38.6549 110.306 39.8018 109.802 40.8385C109.298 41.8751 108.548 42.7693 107.619 43.4411C105.3 44.9865 102.551 45.7353 99.7783 45.5766H86.5674V16.2915H99.4052C101.981 16.1735 104.53 16.8708 106.697 18.2865ZM102.479 27.3364C102.886 27.0229 103.211 26.6143 103.428 26.1455C103.644 25.6768 103.746 25.1619 103.722 24.6449C103.745 24.1411 103.644 23.6396 103.426 23.1857C103.209 22.7318 102.884 22.34 102.479 22.0458C101.493 21.3797 100.314 21.0693 99.1316 21.1647H92.1158V28.2657H99.1316C100.321 28.3759 101.51 28.0457 102.477 27.3364H102.479ZM103.258 39.7741C103.712 39.448 104.082 39.0166 104.338 38.5161C104.593 38.0155 104.726 37.4604 104.726 36.897C104.726 36.3337 104.593 35.7785 104.338 35.278C104.082 34.7774 103.712 34.346 103.258 34.0199C102.018 33.2644 100.574 32.9231 99.1316 33.0444H92.1158V40.7475H99.1316C100.574 40.8693 102.018 40.5288 103.258 39.7741V39.7741Z" fill="white"/>
<path d="M132.235 21.9997C130.92 21.3506 129.48 21.0019 128.018 20.978C126.296 20.9504 124.6 21.3994 123.112 22.2766C120.894 23.6357 119.286 25.815 118.629 28.3531C117.971 30.8912 118.315 33.5887 119.588 35.8744C120.418 37.381 121.636 38.6322 123.112 39.4952C124.602 40.3668 126.297 40.8155 128.018 40.7937C129.456 40.7709 130.875 40.4556 132.19 39.8665C133.568 39.2458 134.826 38.3813 135.904 37.3135L139.16 40.9804C137.643 42.5353 135.855 43.7939 133.887 44.6935C131.975 45.5848 129.895 46.0444 127.79 46.0403C125.108 46.0738 122.466 45.3853 120.133 44.0453C117.852 42.7354 115.96 40.8304 114.654 38.5289C113.347 36.2274 112.674 33.6134 112.705 30.9593C112.678 28.3071 113.363 25.6973 114.687 23.4088C116.012 21.1202 117.926 19.2388 120.225 17.9656C122.337 16.8157 124.675 16.1565 127.07 16.036C129.466 15.9155 131.857 16.3368 134.072 17.2691C135.986 18.0647 137.718 19.2492 139.162 20.7494L135.952 24.8338C134.929 23.629 133.661 22.6623 132.235 21.9997V21.9997Z" fill="white"/>
<path d="M162.635 18.2866C163.484 18.8797 164.172 19.6791 164.637 20.6116C165.102 21.544 165.328 22.5796 165.294 23.6234C165.326 25.1269 164.858 26.5977 163.965 27.8C163.035 28.9909 161.72 29.8123 160.251 30.1202C162.006 30.3962 163.611 31.2827 164.79 32.6271C165.916 33.9899 166.506 35.7247 166.448 37.5002C166.489 38.6549 166.246 39.8018 165.742 40.8385C165.238 41.8752 164.488 42.7694 163.559 43.4411C161.24 44.9866 158.491 45.7353 155.718 45.5767H142.505V16.2916H155.343C157.918 16.1872 160.463 16.8834 162.635 18.2866V18.2866ZM158.417 27.3364C158.824 27.023 159.149 26.6143 159.366 26.1456C159.582 25.6768 159.684 25.1619 159.66 24.645C159.683 24.1412 159.582 23.6396 159.364 23.1858C159.147 22.7319 158.822 22.3401 158.417 22.0458C157.431 21.3797 156.251 21.0693 155.07 21.1648H148.054V28.2657H155.07C156.259 28.3694 157.446 28.0399 158.417 27.3364ZM159.196 39.7742C159.65 39.4481 160.02 39.0167 160.276 38.5162C160.531 38.0156 160.664 37.4604 160.664 36.8971C160.664 36.3337 160.531 35.7786 160.276 35.278C160.02 34.7775 159.65 34.3461 159.196 34.02C157.956 33.2645 156.512 32.9232 155.07 33.0445H148.054V40.7476H155.07C156.512 40.8695 157.956 40.529 159.196 39.7742V39.7742Z" fill="white"/>
<path d="M203.073 31.3264H205.595V42.0461C204.138 43.2746 202.477 44.2327 200.69 44.876C198.87 45.5553 196.944 45.9013 195.004 45.8976C192.367 45.9255 189.77 45.2366 187.485 43.9027C185.231 42.6033 183.35 40.7322 182.028 38.4736C180.697 36.2147 179.999 33.6313 180.011 31.0013C179.993 28.385 180.691 25.8148 182.028 23.5751C183.398 21.3043 185.327 19.4313 187.625 18.1384C189.923 16.8455 192.512 16.1767 195.141 16.1972C197.085 16.2013 199.011 16.5631 200.826 17.265C202.608 17.9322 204.254 18.9209 205.687 20.183L204.029 22.2242C202.849 21.1074 201.462 20.2395 199.948 19.6711C198.41 19.0797 196.778 18.781 195.133 18.7901C192.972 18.7731 190.848 19.3533 188.99 20.4683C187.155 21.5442 185.624 23.0782 184.542 24.924C183.435 26.786 182.861 28.9227 182.884 31.0957C182.871 33.2682 183.435 35.4043 184.515 37.2815C185.596 39.1588 187.154 40.7085 189.027 41.7692C190.902 42.885 193.041 43.465 195.216 43.4474C196.619 43.4426 198.013 43.2074 199.342 42.751C200.687 42.2992 201.954 41.642 203.102 40.8021V31.3348L203.073 31.3264Z" fill="white"/>
<path d="M231.495 45.6207L225.259 36.1072C224.388 36.1533 223.7 36.1995 223.242 36.1995H215.265V45.6668H212.427V16.43H223.205C226.214 16.2268 229.195 17.1337 231.595 18.983C232.593 19.8769 233.376 20.9895 233.884 22.2361C234.393 23.4827 234.614 24.8303 234.53 26.1763C234.599 28.3397 233.988 30.4695 232.787 32.2599C231.567 33.9281 229.819 35.1236 227.835 35.6478L234.758 45.7172H231.495V45.6207ZM223.205 33.5542C225.484 33.6924 227.738 33.0193 229.578 31.6515C230.339 30.9615 230.937 30.1063 231.326 29.1499C231.715 28.1935 231.885 27.1605 231.825 26.1281C231.891 25.1224 231.723 24.1149 231.332 23.1877C230.942 22.2604 230.341 21.4393 229.578 20.7913C227.726 19.4529 225.477 18.7976 223.205 18.9348H215.273V33.5542H223.205Z" fill="white"/>
<path d="M260.8 18.0999C263.051 19.3819 264.932 21.2376 266.257 23.4828C267.587 25.725 268.285 28.2935 268.273 30.909C268.284 33.5389 267.587 36.1222 266.257 38.3813C264.91 40.6605 263.003 42.5474 260.72 43.8575C258.438 45.1677 255.859 45.8564 253.235 45.8564C250.612 45.8564 248.033 45.1677 245.751 43.8575C243.468 42.5474 241.561 40.6605 240.214 38.3813C238.883 36.1224 238.186 33.539 238.198 30.909C238.18 28.2927 238.878 25.7225 240.214 23.4828C241.566 21.2152 243.477 19.3425 245.76 18.0489C248.044 16.7553 250.62 16.0854 253.237 16.1049C255.883 16.1163 258.484 16.8024 260.8 18.0999V18.0999ZM247.182 20.3739C245.328 21.4233 243.79 22.9636 242.735 24.8296C241.628 26.6916 241.054 28.8283 241.077 31.0013C241.06 33.1735 241.633 35.3085 242.735 37.1729C243.802 39.0422 245.336 40.5947 247.182 41.6748C249.025 42.7687 251.122 43.3454 253.257 43.3454C255.393 43.3454 257.49 42.7687 259.332 41.6748C261.179 40.5946 262.713 39.0421 263.78 37.1729C264.861 35.2999 265.431 33.1696 265.431 31.0002C265.431 28.8309 264.861 26.7006 263.78 24.8275C262.698 22.9819 261.167 21.4478 259.332 20.3718C257.497 19.2858 255.406 18.7246 253.28 18.7481C251.136 18.6908 249.02 19.2548 247.182 20.3739V20.3739Z" fill="white"/>
<path d="M278.315 40.7475C280.18 42.3651 282.554 43.2542 285.01 43.2542C287.466 43.2542 289.84 42.3651 291.705 40.7475C292.538 39.7956 293.177 38.6868 293.586 37.4845C293.995 36.2822 294.165 35.0101 294.088 33.741V16.3293H296.932V33.741C297.023 35.3885 296.78 37.0375 296.22 38.5871C295.66 40.1366 294.793 41.5542 293.673 42.7531C292.553 43.952 291.203 44.907 289.705 45.5597C288.208 46.2124 286.595 46.549 284.964 46.549C283.334 46.549 281.721 46.2124 280.224 45.5597C278.726 44.907 277.376 43.952 276.256 42.7531C275.136 41.5542 274.269 40.1366 273.709 38.5871C273.148 37.0375 272.906 35.3885 272.997 33.741V16.3293H275.841V33.741C275.727 36.3144 276.616 38.8301 278.315 40.7475V40.7475Z" fill="white"/>
<path d="M323.065 18.9369C324.063 19.8307 324.846 20.9433 325.355 22.1899C325.864 23.4365 326.084 24.7841 326 26.1302C326.088 27.5111 325.871 28.8945 325.363 30.1793C324.855 31.4642 324.07 32.6179 323.065 33.5563C320.722 35.4481 317.767 36.3909 314.775 36.2016H306.98V45.6689H304.13V16.4363H314.769C317.745 16.1938 320.704 17.0856 323.065 18.9369V18.9369ZM321.049 31.6515C321.818 30.9681 322.421 30.1141 322.811 29.156C323.201 28.1979 323.366 27.1617 323.295 26.1281C323.362 25.1224 323.193 24.115 322.803 23.1877C322.412 22.2604 321.811 21.4394 321.049 20.7913C319.18 19.4456 316.912 18.7902 314.624 18.9348H306.967V33.5521H314.669C316.952 33.7141 319.217 33.0395 321.049 31.6515V31.6515Z" fill="white"/>
<path d="M25.0807 51.5992L20.8173 59.0715L19.1592 61.9958H53.0424L70.0067 32.2954H58.1306L47.1271 51.595L25.0807 51.5992Z" fill="white"/>
<path d="M22.8796 50.3509L11.8305 30.9989L22.8796 11.6468L16.9644 1.25232L0 30.9989L16.9644 60.7455L18.6225 57.775L22.8796 50.3509Z" fill="white"/>
<path d="M58.1308 29.7004H70.0068L53.0487 0H19.1655L25.0808 10.3945H47.1355L58.1308 29.7004Z" fill="white"/>
<path d="M15.5425 32.2996L25.0765 49.0524H44.1964L34.6106 32.2996H15.5425Z" fill="white"/>
<path d="M46.4016 47.754L55.9357 31.0011L46.4016 14.2482L36.8179 31.0011L46.4016 47.754Z" fill="white"/>
<path d="M44.1985 12.9475H25.0765L15.5425 29.7004H34.6106L44.1985 12.9475Z" fill="white"/>
</g>
<defs>
<clipPath id="clip0_197_17192">
<rect width="326" height="62" fill="white"/>
</clipPath>
</defs>
</svg>
