<svg width="410" height="205" viewBox="0 0 410 205" fill="none" xmlns="http://www.w3.org/2000/svg">
<path d="M275.86 51.3C272.203 51.302 268.627 50.2193 265.585 48.1887C262.543 46.1582 260.172 43.2712 258.771 39.8928C257.37 36.5143 257.002 32.7963 257.714 29.2089C258.427 25.6216 260.187 22.326 262.772 19.7391C265.358 17.1523 268.652 15.3903 272.239 14.676C275.826 13.9618 279.545 14.3274 282.924 15.7265C286.303 17.1257 289.191 19.4956 291.224 22.5365C293.256 25.5774 294.34 29.1526 294.34 32.81C294.332 37.7097 292.383 42.4066 288.92 45.8721C285.456 49.3377 280.76 51.2894 275.86 51.3Z" fill="white"/>
<path d="M330.28 129H310.28L305.55 85.61H304.49L289.33 129H262.44L247.3 85.61H246.24L241.52 129H221.52C221.52 129 225.52 92.5 227.16 77.74C228.65 64 235.84 57 248.5 57H257.58L275.5 107.63H276.27L294.19 57H303.19C315.79 57 322.98 64 324.56 77.74C326.18 92 330.28 129 330.28 129ZM100.58 57L134.87 129H109.31L102.86 113.59H67.2096L60.7496 129H36.8896C36.8896 129 53.9997 93.59 59.8297 80.64C66.6997 65.43 72.5697 57 86.8297 57H100.58ZM84.6396 72L72.6396 100.19H97.4397L85.4196 72H84.6396ZM214.42 108.66C214.42 121.35 204.98 129.02 187.3 129.02H140.11V77.24C140.11 65.81 146.7 57 161 57H185.3C202.1 57 210.15 63.77 210.15 75.3C210.15 82.99 205.27 87.99 198.56 90.43V91C203.31 91.55 214.42 96.57 214.42 108.64V108.66ZM179.1 85.94C184.59 85.94 188.68 83.64 188.68 78.39C188.68 73.74 185.32 70.83 179.1 70.83H161.71V85.94H179.1ZM180 115.2C186.54 115.2 191.41 112.63 191.41 106.86C191.41 100.71 186.25 98.4 180 98.4H161.71V115.2H180Z" fill="white"/>
<path d="M140.11 153.07H147.9C153.63 153.07 155.54 156.07 155.54 159.62C155.543 160.536 155.335 161.441 154.931 162.263C154.526 163.086 153.938 163.803 153.21 164.36C154.207 164.91 155.027 165.732 155.574 166.731C156.121 167.73 156.373 168.864 156.3 170C156.3 173.85 154.2 176.94 148.09 176.94H140.09L140.11 153.07ZM148.03 156.25H143.48V163H148.28C151.21 163 151.94 161.28 151.94 159.62C151.94 157.96 151.37 156.25 148 156.25H148.03ZM143.48 173.75H148.22C151.97 173.75 152.7 171.84 152.7 169.99C152.7 167.35 151.53 166.17 148.28 166.17H143.48V173.75Z" fill="white"/>
<path d="M162.89 172.28C162.89 173.78 164 174.28 165.46 174.28C166.731 174.303 167.992 174.043 169.15 173.52V161H172.43V176.91H170.23L169.92 176.02C168.588 176.871 167.041 177.322 165.46 177.32C161.55 177.32 159.61 175.41 159.61 172.2V161H162.89V172.28Z" fill="white"/>
<path d="M178.35 153.48C178.791 153.478 179.223 153.607 179.592 153.851C179.96 154.095 180.247 154.442 180.417 154.85C180.588 155.257 180.633 155.706 180.548 156.139C180.463 156.572 180.252 156.97 179.94 157.283C179.629 157.596 179.231 157.81 178.799 157.896C178.366 157.983 177.917 157.94 177.509 157.771C177.101 157.603 176.752 157.317 176.506 156.95C176.261 156.583 176.13 156.151 176.13 155.71C176.129 155.418 176.185 155.128 176.296 154.857C176.407 154.587 176.57 154.341 176.777 154.134C176.983 153.927 177.228 153.762 177.498 153.65C177.768 153.538 178.058 153.48 178.35 153.48V153.48ZM180.58 177.34C178.06 177.34 176.73 176.34 176.73 173.49V161H179.94V173.57C179.94 174.14 180.26 174.3 181.18 174.3V177.3L180.58 177.34Z" fill="white"/>
<path d="M188.82 177.34C186.3 177.34 184.97 176.34 184.97 173.49V153.07H188.18V173.59C188.18 174.16 188.5 174.32 189.42 174.32V177.32L188.82 177.34Z" fill="white"/>
<path d="M206.25 176.93H204.12L203.8 176.04C202.483 176.842 200.981 177.29 199.44 177.34C194.07 177.34 192.54 173.97 192.54 168.98C192.54 163.99 194.07 160.61 199.44 160.61C200.689 160.623 201.92 160.917 203.04 161.47V153.07H206.25V176.93ZM199.44 163.63C196.33 163.63 195.85 166.08 195.85 168.98C195.85 171.88 196.33 174.32 199.44 174.32C200.683 174.35 201.915 174.09 203.04 173.56V164.36C202.661 164.185 202.266 164.048 201.86 163.95C201.071 163.739 200.257 163.632 199.44 163.63Z" fill="white"/>
<path d="M212.17 153.48C212.612 153.478 213.044 153.607 213.412 153.851C213.78 154.095 214.067 154.442 214.238 154.85C214.408 155.257 214.453 155.706 214.369 156.139C214.284 156.572 214.072 156.97 213.761 157.283C213.449 157.596 213.052 157.81 212.619 157.896C212.186 157.983 211.737 157.94 211.329 157.771C210.921 157.603 210.572 157.317 210.327 156.95C210.081 156.583 209.95 156.151 209.95 155.71C209.949 155.418 210.005 155.128 210.116 154.857C210.227 154.587 210.391 154.341 210.597 154.134C210.803 153.927 211.048 153.762 211.318 153.65C211.588 153.538 211.878 153.48 212.17 153.48V153.48ZM214.4 177.34C211.88 177.34 210.55 176.34 210.55 173.49V161H213.76V173.57C213.76 174.14 214.08 174.3 215 174.3V177.3L214.4 177.34Z" fill="white"/>
<path d="M228.33 165.67C228.33 164.17 227.22 163.67 225.76 163.67C224.489 163.647 223.229 163.907 222.07 164.43V176.97H218.79V161H221L221.31 161.89C222.642 161.039 224.19 160.588 225.77 160.59C229.68 160.59 231.62 162.5 231.62 165.71V176.91H228.34L228.33 165.67Z" fill="white"/>
<path d="M241.62 173C241.251 173.021 240.88 173.021 240.51 173C240.13 173.26 239.71 173.64 239.71 174C239.71 174.36 239.87 174.51 240.28 174.57L245.34 175.17C248.34 175.52 249.92 176.76 249.92 179.72C249.92 183.72 246.04 185.35 241.62 185.35C237.2 185.35 234.4 183.83 234.4 180.17C234.424 179.339 234.689 178.532 235.163 177.848C235.637 177.165 236.3 176.634 237.07 176.32V176.32C236.67 175.778 236.468 175.114 236.5 174.44C236.513 174.002 236.618 173.571 236.81 173.176C237.001 172.781 237.274 172.431 237.61 172.15C235.86 171.04 235.26 169.1 235.26 166.9C235.26 163.53 236.72 160.7 241.62 160.7C242.589 160.69 243.554 160.828 244.48 161.11H249.61V163.27L247.44 163.88C247.817 164.835 248 165.854 247.98 166.88C248 170.18 246.55 173 241.62 173ZM240.62 177.45C238.94 177.99 237.62 178.79 237.62 180.09C237.62 181.81 238.96 182.26 241.62 182.26C244.28 182.26 246.62 181.68 246.62 179.64C246.62 178.53 246.14 178.09 244.77 177.93L240.62 177.45ZM241.62 169.97C244.55 169.97 244.9 168.44 244.9 166.79C244.9 165.14 244.55 163.61 241.62 163.61C238.69 163.61 238.38 165.14 238.38 166.79C238.38 168.44 238.69 170 241.62 170V169.97Z" fill="white"/>
<path d="M273.19 153.07H276.85L268.38 177.34H266.06L257.6 153.07H261.26L267.26 171.74L273.19 153.07Z" fill="white"/>
<path d="M282 163.63C280.145 163.678 278.31 164.016 276.56 164.63V161.63C278.309 161.018 280.147 160.697 282 160.68C286.9 160.68 288.17 162.91 288.17 166.21V177H286L285.71 176.17C284.358 176.96 282.825 177.388 281.26 177.41C276.84 177.41 275.47 174.74 275.47 171.97C275.47 169.46 276.64 167.23 281.35 166.85L284.95 166.56V166.24C284.94 164.46 284.3 163.63 282 163.63ZM281.3 169.48C279.3 169.67 278.72 170.79 278.72 171.9C278.72 173.01 278.98 174.32 281.3 174.32C282.574 174.291 283.821 173.948 284.93 173.32V169.15L281.3 169.48Z" fill="white"/>
<path d="M296.33 177.34C293.81 177.34 292.48 176.34 292.48 173.49V153.07H295.69V173.59C295.69 174.16 296.01 174.32 296.93 174.32V177.32L296.33 177.34Z" fill="white"/>
<path d="M303.49 172.28C303.49 173.78 304.6 174.28 306.06 174.28C307.334 174.301 308.597 174.042 309.76 173.52V161H313V176.91H310.81L310.49 176.02C309.158 176.871 307.61 177.322 306.03 177.32C302.12 177.32 300.18 175.41 300.18 172.2V161H303.46L303.49 172.28Z" fill="white"/>
<path d="M320 170.5C320.26 172.7 321.18 174.32 323.73 174.32C325.617 174.36 327.488 173.966 329.2 173.17V176.26C327.476 177.011 325.61 177.38 323.73 177.34C318.35 177.34 316.63 174 316.63 168.98C316.63 163.96 318.35 160.61 323.73 160.61C329.29 160.61 330.06 164.52 330.06 168.98V170.5H320ZM320 167.67H326.71C326.71 165.57 326.36 163.67 323.76 163.67C321.16 163.67 320.22 165.38 320 167.67Z" fill="white"/>
<path d="M344.17 116.16C345.471 116.16 346.743 116.546 347.826 117.269C348.908 117.992 349.751 119.02 350.249 120.222C350.747 121.424 350.877 122.747 350.623 124.024C350.37 125.3 349.743 126.473 348.823 127.393C347.902 128.313 346.73 128.94 345.454 129.194C344.177 129.447 342.854 129.317 341.652 128.819C340.449 128.321 339.422 127.478 338.699 126.396C337.976 125.314 337.59 124.041 337.59 122.74C337.592 120.996 338.287 119.324 339.52 118.09C340.753 116.857 342.426 116.163 344.17 116.16V116.16ZM344.17 128.37C345.284 128.372 346.373 128.043 347.3 127.426C348.228 126.809 348.951 125.93 349.378 124.901C349.806 123.873 349.919 122.741 349.703 121.648C349.487 120.555 348.951 119.551 348.164 118.763C347.377 117.974 346.374 117.437 345.282 117.219C344.19 117.001 343.057 117.112 342.028 117.538C340.998 117.963 340.118 118.685 339.499 119.611C338.88 120.537 338.55 121.626 338.55 122.74C338.55 124.231 339.142 125.662 340.195 126.718C341.249 127.773 342.678 128.367 344.17 128.37V128.37ZM342.74 126.51H341.79V118.92H344.7C346.42 118.92 347.09 119.66 347.09 121.03C347.11 121.298 347.077 121.567 346.991 121.821C346.905 122.075 346.769 122.309 346.591 122.51C346.413 122.711 346.196 122.873 345.953 122.989C345.711 123.104 345.448 123.169 345.18 123.18L347.45 126.51H346.37L344.1 123.18H342.74V126.51ZM342.74 122.33H344C345 122.33 346.18 122.33 346.18 121.03C346.18 120.03 345.29 119.77 344.48 119.77H342.78L342.74 122.33Z" fill="white"/>
</svg>
