<svg width="280" height="280" viewBox="0 0 280 280" fill="none" xmlns="http://www.w3.org/2000/svg">
<path d="M137.289 78.7637H147.71C148.894 78.7637 149.841 77.8163 149.841 76.6321C149.841 75.4479 148.894 74.5005 147.71 74.5005H137.289V78.7637ZM137.289 88.711H147.947C149.368 88.711 150.315 87.7637 150.315 86.3426C150.315 84.9216 149.368 83.9742 147.947 83.9742H137.289V88.711ZM154.105 81.1321C155.526 82.5531 156.473 84.4479 156.473 86.5795C156.473 90.8426 153.157 94.1584 148.894 94.1584H131.605V69.29H148.657C152.684 69.29 155.999 72.6058 155.999 76.6321C155.763 78.29 155.052 79.9479 154.105 81.1321ZM158.131 123.764H151.736L149.841 119.501H135.868L133.973 123.764H127.578L139.894 98.8952H145.578L158.131 123.764ZM142.736 105.29L138.473 114.29H146.999L142.736 105.29ZM151.262 129.211H158.368L145.815 145.316V154.079H139.894V145.316L127.341 129.211H134.447L142.973 140.579L151.262 129.211ZM184.184 129.211V134.658H167.605V138.922H183.71V144.369H167.605V149.106H184.184V154.553H161.684V129.211H184.184ZM202.421 144.606H197.921V154.079H192V129.211H207.157C211.421 129.211 214.736 132.764 214.736 137.027C214.736 140.579 212.368 143.422 209.289 144.369L216.631 154.079H209.526L202.421 144.606ZM206.684 134.422H198.157V139.158H206.684C208.105 139.158 209.052 137.974 209.052 136.79C209.052 135.606 207.868 134.422 206.684 134.422ZM129.947 154.079H123.552L121.657 149.816H107.683L105.789 154.079H99.3938L111.947 129.211H117.631L129.947 154.079ZM114.552 135.606L110.289 144.606H119.052L114.552 135.606ZM76.8937 138.685H87.3148C88.4991 138.685 89.4464 137.737 89.4464 136.553C89.4464 135.369 88.4991 134.422 87.3148 134.422H76.8937V138.685ZM76.8937 148.632H87.5517C88.9727 148.632 89.9201 147.685 89.9201 146.264C89.9201 144.843 88.9727 143.895 87.5517 143.895H76.8937V148.632ZM93.7096 141.053C95.1307 142.474 96.078 144.369 96.078 146.501C96.078 150.764 92.7622 154.079 88.4991 154.079H70.9727V129.211H88.0254C92.0517 129.211 95.3675 132.527 95.3675 136.553C95.3675 138.211 94.657 139.869 93.7096 141.053ZM154.105 159.29V164.737H137.526V169.001H153.631V174.448H137.526V179.185H154.105V184.632H131.605V159.29H154.105ZM149.841 197.895C149.841 196.474 148.894 195.527 147.473 195.527H137.289V200.264H147.473C148.894 200.264 149.841 199.316 149.841 197.895ZM131.368 215.185V190.316H147.947C152.21 190.316 155.526 193.869 155.526 198.132C155.526 201.448 153.631 204.053 150.789 205.237L158.368 215.185H151.262L144.157 205.711H137.289V215.185H131.368V215.185Z" fill="white"/>
<path d="M232.496 136.316C229.654 89.4211 190.575 52 142.732 52C94.89 52 55.8109 89.4211 52.9688 136.316C52.9688 138.211 53.2056 140.105 53.4424 142C55.3372 157.632 61.2583 172.079 70.2583 184.158C86.6005 206.421 112.89 220.868 142.732 220.868C101.048 220.868 66.9425 188.421 64.1004 147.684C63.8635 145.789 63.8635 143.895 63.8635 142C63.8635 140.105 63.8635 138.211 64.1004 136.316C66.9425 95.5789 101.048 63.1316 142.732 63.1316C172.575 63.1316 198.864 77.579 215.206 99.8421C224.206 111.921 230.127 126.368 232.022 142C232.259 143.895 232.496 145.789 232.496 147.447C232.496 145.553 232.733 143.658 232.733 141.763C232.733 140.105 232.733 138.211 232.496 136.316Z" fill="white"/>
<path d="M52.9712 147.684C55.8133 194.579 94.8925 232 142.735 232C190.577 232 229.656 194.579 232.498 147.684C232.498 145.789 232.262 143.895 232.025 142C230.13 126.368 224.209 111.921 215.209 99.8421C198.867 77.579 172.577 63.1316 142.735 63.1316C184.419 63.1316 218.525 95.579 221.367 136.316C221.604 138.211 221.604 140.105 221.604 142C221.604 143.895 221.604 145.789 221.367 147.684C218.525 188.658 184.419 220.868 142.735 220.868C112.893 220.868 86.603 206.421 70.2608 184.158C61.2607 172.079 55.3397 157.632 53.4449 142C53.2081 140.105 52.9712 138.211 52.9712 136.553C52.9712 138.447 52.7344 140.342 52.7344 142.237C52.7344 143.895 52.7344 145.789 52.9712 147.684Z" fill="white"/>
</svg>
