<svg width="312" height="76" viewBox="0 0 312 76" fill="none" xmlns="http://www.w3.org/2000/svg">
<g clip-path="url(#clip0_197_17242)">
<path d="M296.609 44.2644C295.881 44.6752 295.049 45.0861 294.217 45.2915C293.281 45.4969 292.449 45.5996 291.513 45.5996C290.369 45.5996 289.225 45.3942 288.081 45.0861C287.145 44.778 286.209 44.2644 285.481 43.5455C284.753 42.9293 284.233 42.1077 283.921 41.1834C283.505 40.1563 283.401 39.1293 283.401 38.1023C283.401 37.0752 283.609 35.9455 284.025 35.0212C284.441 34.0969 284.961 33.2752 285.689 32.5563C286.417 31.8374 287.249 31.3239 288.289 31.0158C289.329 30.605 290.473 30.3996 291.617 30.5023C293.073 30.5023 294.425 30.7077 295.777 31.3239L295.153 35.5347C294.737 35.3293 294.217 35.1239 293.697 35.1239C293.281 35.0212 292.761 35.0212 292.241 35.0212C291.305 34.9185 290.265 35.2266 289.537 35.8428C288.289 37.0752 288.185 39.1293 289.537 40.4644C290.369 41.0807 291.305 41.3888 292.345 41.2861C292.761 41.2861 293.177 41.2861 293.593 41.1834C294.009 41.0807 294.425 40.9779 294.841 40.8752L296.609 44.2644ZM273.833 41.1834C274.665 41.1834 275.393 40.8752 275.913 40.259C277.057 38.9239 277.057 36.9725 275.913 35.6374C275.393 35.0212 274.561 34.7131 273.833 34.7131C273.001 34.7131 272.273 35.0212 271.649 35.6374C270.505 36.9725 270.505 38.9239 271.649 40.259C272.273 40.8752 273.105 41.1834 273.833 41.1834ZM272.481 45.7023C271.545 45.7023 270.609 45.4969 269.777 45.1888C268.945 44.778 268.217 44.2644 267.697 43.6482C267.073 42.9293 266.657 42.1077 266.345 41.2861C266.033 40.259 265.825 39.232 265.825 38.205C265.825 37.178 266.033 36.1509 266.345 35.1239C266.657 34.1996 267.177 33.3779 267.801 32.659C268.425 31.9401 269.153 31.4266 269.985 31.0158C270.817 30.605 271.753 30.3996 272.689 30.3996C273.521 30.3996 274.353 30.605 275.081 30.9131C275.809 31.3239 276.433 31.8374 276.849 32.4536L276.953 30.8104H281.737V45.1888H276.953L276.849 43.5455C276.433 44.2644 275.809 44.778 275.081 45.0861C274.249 45.4969 273.313 45.7023 272.481 45.7023ZM256.153 41.1834C256.985 41.1834 257.713 40.8752 258.337 40.259C259.481 38.9239 259.481 36.9725 258.337 35.6374C257.817 35.0212 256.985 34.7131 256.153 34.7131C255.321 34.7131 254.593 35.0212 254.073 35.6374C252.929 36.9725 252.929 38.9239 254.073 40.259C254.489 40.8752 255.321 41.1834 256.153 41.1834ZM248.353 30.7077H253.137L253.241 32.3509C253.657 31.632 254.281 31.1185 255.009 30.8104C255.841 30.3996 256.673 30.2969 257.505 30.2969C258.441 30.2969 259.377 30.5023 260.209 30.8104C261.041 31.2212 261.769 31.7347 262.289 32.3509C262.913 33.0698 263.329 33.8915 263.641 34.7131C263.953 35.7401 264.161 36.7671 264.161 37.7942C264.161 38.8212 263.953 39.8482 263.641 40.8752C263.329 41.7996 262.809 42.6212 262.185 43.3401C261.561 44.059 260.833 44.5725 260.001 44.9834C259.169 45.3942 258.233 45.5996 257.297 45.5996C256.569 45.5996 255.737 45.4969 255.113 45.0861C254.489 44.778 253.865 44.3671 253.449 43.7509V51.3509H248.353V30.7077ZM240.553 33.9942C239.513 33.9942 238.993 34.3023 238.993 34.8158C238.993 35.1239 239.201 35.432 239.409 35.5347C239.929 35.8428 240.553 35.9455 241.177 36.1509C242.633 36.459 243.881 37.0752 245.025 37.9996C245.857 38.8212 246.273 39.9509 246.169 41.1834C246.273 42.5185 245.545 43.8536 244.401 44.5725C243.257 45.3942 241.593 45.805 239.513 45.805C238.369 45.805 237.329 45.7023 236.185 45.3942C235.249 45.1888 234.417 44.8807 233.689 44.3671L235.353 41.3888C236.601 41.7996 237.849 42.1077 239.201 42.1077C240.449 42.1077 241.073 41.7996 241.073 41.2861C241.073 41.1834 241.073 40.9779 240.969 40.8752C240.865 40.7725 240.761 40.6698 240.657 40.5671C240.449 40.4644 240.241 40.3617 240.033 40.259C239.721 40.1563 239.409 40.0536 238.993 39.9509C238.161 39.7455 237.433 39.5401 236.705 39.1293C236.185 38.8212 235.561 38.5131 235.145 38.1023C234.729 37.6915 234.521 37.2807 234.313 36.7671C234.105 36.2536 234.001 35.6374 234.001 35.0212C233.897 33.6861 234.521 32.4536 235.561 31.632C236.913 30.7077 238.577 30.2969 240.241 30.3996C241.177 30.3996 242.217 30.5023 243.153 30.7077C243.985 30.9131 244.817 31.1185 245.545 31.5293L245.025 35.1239C244.297 34.8158 243.569 34.5077 242.841 34.3023C242.113 34.0969 241.281 33.9942 240.553 33.9942ZM224.225 41.3888C225.057 41.3888 225.993 41.0807 226.513 40.4644C227.657 39.0266 227.657 36.9725 226.513 35.432C225.265 34.1996 223.185 34.1996 221.937 35.432C220.793 36.8698 220.793 38.9239 221.937 40.4644C222.457 41.0807 223.289 41.4915 224.225 41.3888ZM224.225 45.7023C223.081 45.7023 222.041 45.4969 221.001 45.0861C219.129 44.3671 217.569 42.9293 216.737 41.0807C216.321 40.1563 216.113 39.0266 216.113 37.9996C216.113 36.9725 216.321 35.9455 216.737 34.9185C217.569 33.0698 219.025 31.632 221.001 30.9131C223.081 30.1942 225.369 30.1942 227.449 30.9131C228.385 31.3239 229.217 31.8374 230.049 32.5563C230.777 33.2752 231.297 34.0969 231.713 35.0212C232.129 35.9455 232.337 37.0752 232.337 38.1023C232.337 40.1563 231.505 42.1077 230.049 43.5455C229.321 44.2644 228.489 44.778 227.553 45.1888C226.409 45.4969 225.265 45.7023 224.225 45.7023ZM204.777 30.7077H209.769L209.873 32.8644C210.185 32.1455 210.705 31.5293 211.329 31.0158C211.953 30.605 212.785 30.3996 213.513 30.3996C214.137 30.3996 214.657 30.5023 215.177 30.7077L214.761 35.432C214.449 35.3293 214.137 35.2266 213.825 35.1239C213.513 35.0212 213.201 35.0212 212.889 35.0212C210.913 35.0212 209.873 36.2536 209.873 38.8212V44.9834H204.777V30.7077V30.7077ZM178.049 36.0482L175.553 28.7563L173.057 36.0482H178.049ZM172.849 23.9293H178.777L187.201 45.1888H181.169L179.505 40.259H171.601L169.937 45.1888H164.321L172.849 23.9293ZM152.153 33.9942C151.113 33.9942 150.593 34.3023 150.593 34.8158C150.593 35.1239 150.801 35.432 151.009 35.5347C151.529 35.8428 152.153 35.9455 152.777 36.1509C154.233 36.3563 155.481 37.0752 156.625 37.9996C157.457 38.8212 157.873 39.9509 157.769 41.1834C157.873 42.5185 157.145 43.8536 156.001 44.5725C154.857 45.3942 153.193 45.805 151.113 45.805C149.969 45.805 148.929 45.7023 147.785 45.3942C146.849 45.1888 146.017 44.8807 145.289 44.3671L146.953 41.3888C148.201 41.7996 149.449 42.1077 150.801 42.1077C152.049 42.1077 152.673 41.7996 152.673 41.2861C152.673 41.1834 152.673 40.9779 152.569 40.8752C152.465 40.7725 152.361 40.6698 152.257 40.5671C152.049 40.4644 151.841 40.3617 151.633 40.259C151.321 40.1563 151.009 40.0536 150.593 39.9509C149.761 39.7455 149.033 39.5401 148.305 39.1293C147.785 38.8212 147.265 38.5131 146.745 38.1023C146.329 37.6915 146.017 37.2807 145.913 36.7671C145.705 36.2536 145.601 35.6374 145.601 35.0212C145.497 33.6861 146.121 32.4536 147.265 31.632C148.617 30.7077 150.281 30.2969 151.945 30.3996C152.881 30.3996 153.921 30.5023 154.857 30.7077C155.689 30.9131 156.521 31.1185 157.249 31.5293L156.729 35.1239C156.001 34.8158 155.273 34.5077 154.545 34.3023C153.713 34.0969 152.985 33.9942 152.153 33.9942ZM128.857 30.7077H133.849L133.953 32.4536C134.369 31.7347 134.889 31.2212 135.617 30.8104C136.449 30.3996 137.281 30.1942 138.113 30.1942C139.569 30.0915 140.921 30.7077 141.961 31.7347C142.793 32.7617 143.209 34.3023 143.209 36.3563V45.1888H138.113V37.3834C138.113 35.6374 137.489 34.8158 136.137 34.8158C135.513 34.8158 134.889 35.0212 134.473 35.5347C134.057 36.1509 133.849 36.8698 133.953 37.5888V45.1888H128.857V30.7077ZM120.433 30.7077H125.529V45.1888H120.433V30.7077ZM123.033 28.4482C122.305 28.4482 121.577 28.2428 120.953 27.6266C119.913 26.5996 119.809 24.8536 120.849 23.8266C120.849 23.8266 120.849 23.8266 120.953 23.7239C122.097 22.6969 123.865 22.6969 125.009 23.7239C125.529 24.2374 125.841 24.9563 125.841 25.6752C125.841 26.3942 125.529 27.1131 125.009 27.6266C124.489 28.2428 123.761 28.5509 123.033 28.4482ZM111.697 23.9293H116.793V45.1888H111.697V23.9293ZM103.377 23.9293H108.473V45.1888H103.377V23.9293ZM93.185 41.4915C94.017 41.4915 94.953 41.1834 95.473 40.5671C96.617 39.1293 96.617 37.0752 95.473 35.5347C94.849 34.9185 94.017 34.5077 93.185 34.6104C92.353 34.6104 91.417 34.9185 90.897 35.5347C89.753 36.9725 89.753 39.0266 90.897 40.5671C91.417 41.1834 92.249 41.4915 93.185 41.4915ZM93.185 45.7023C92.041 45.7023 91.001 45.4969 89.961 45.0861C89.025 44.6753 88.089 44.059 87.361 43.3401C86.633 42.6212 86.009 41.7996 85.697 40.7725C85.281 39.7455 85.073 38.7185 85.073 37.6915C85.073 36.6644 85.281 35.6374 85.697 34.7131C86.113 33.8915 86.633 33.0698 87.361 32.4536C88.089 31.8374 89.025 31.3239 89.961 30.9131C91.001 30.5023 92.041 30.3996 93.185 30.3996C94.329 30.3996 95.369 30.605 96.409 31.0158C97.345 31.4266 98.177 31.9401 99.009 32.659C99.737 33.3779 100.257 34.1996 100.673 35.1239C101.089 36.0482 101.297 37.178 101.297 38.205C101.297 40.259 100.465 42.2104 99.009 43.6482C98.281 44.3671 97.449 44.8807 96.513 45.2915C95.369 45.4969 94.225 45.7023 93.185 45.7023ZM83.825 43.2374C82.785 44.059 81.537 44.5725 80.289 44.9834C78.937 45.3942 77.481 45.5996 76.025 45.5996C74.465 45.5996 72.905 45.3942 71.345 44.8807C69.993 44.4698 68.849 43.7509 67.809 42.7239C66.769 41.7996 66.041 40.5671 65.625 39.3347C65.105 37.8969 64.793 36.2536 64.897 34.7131C64.897 33.1725 65.209 31.632 65.729 30.2969C66.249 28.9617 67.081 27.832 68.121 26.805C69.161 25.778 70.513 25.059 71.865 24.5455C73.425 24.032 74.985 23.7239 76.649 23.7239C77.273 23.7239 77.897 23.7239 78.521 23.8266C79.769 24.032 81.017 24.3401 82.161 24.7509C82.681 24.9563 83.201 25.1617 83.617 25.3671L81.329 29.7834L80.185 29.2698C79.873 29.1671 79.561 28.9617 79.145 28.859C78.833 28.7563 78.417 28.6536 78.105 28.6536C77.689 28.6536 77.273 28.5509 76.857 28.5509C75.193 28.4482 73.529 29.0644 72.177 30.1942C71.033 31.3239 70.409 32.9671 70.513 34.6104C70.513 35.432 70.617 36.2536 70.929 37.0752C71.137 37.7942 71.553 38.4104 72.177 39.0266C72.697 39.5401 73.321 39.9509 74.049 40.259C74.881 40.5671 75.713 40.6698 76.545 40.6698C77.377 40.6698 78.209 40.5671 79.041 40.259C79.873 39.9509 80.601 39.5401 81.329 39.0266L83.825 43.2374ZM20.801 12.2212C21.425 12.1185 21.945 12.0158 22.569 11.9131L25.273 27.4212C24.649 27.4212 24.129 27.5239 23.505 27.7293L20.801 12.2212ZM20.073 29.3725C20.697 28.9617 21.321 28.6536 21.945 28.3455L14.041 14.6861C13.417 14.9942 12.793 15.3023 12.169 15.7131L20.073 29.3725ZM15.601 37.9996C15.601 37.3834 15.601 36.8698 15.705 36.2536H-0.103031C-0.103031 36.7671 -0.207031 37.3834 -0.207031 37.8969C-0.207031 38.4104 -0.207031 38.9239 -0.207031 39.4374H15.497C15.601 39.0266 15.601 38.5131 15.601 37.9996ZM36.921 37.9996C36.921 43.8536 32.137 48.5779 26.209 48.5779C21.009 48.5779 16.537 44.8807 15.705 39.8482L0.936969 45.1888C1.24897 46.3185 1.66497 47.4482 2.18497 48.4752L16.849 43.1347L4.78497 53.1996C5.51297 54.2266 6.34497 55.2536 7.28097 56.1779L18.513 46.832L11.129 59.4644C12.273 60.2861 13.521 61.005 14.769 61.6212L21.841 49.7077L19.449 63.2644C20.905 63.6752 22.465 63.8807 24.025 64.0861L26.209 51.3509L28.497 63.9834C30.057 63.8806 31.721 63.5725 33.281 63.1617L31.201 51.3509L37.233 61.7239C38.897 61.005 40.457 60.0807 41.913 59.0536L36.401 49.605L44.825 56.6915C46.177 55.3563 47.425 53.9185 48.361 52.378L40.873 46.1131L50.129 49.5023C50.961 47.7563 51.689 45.9077 52.105 43.9563L43.993 40.978H52.625C52.729 39.9509 52.833 39.0266 52.833 37.9996C52.833 36.8698 52.729 35.7401 52.625 34.6104H36.297C36.713 35.5347 36.921 36.7671 36.921 37.9996ZM15.809 35.6374C16.017 34.7131 16.329 33.8915 16.849 33.0698L2.08097 27.6266C1.66497 28.4482 1.35297 29.3725 1.14497 30.2969L15.809 35.6374ZM46.177 20.7455L34.009 30.8104C34.321 31.1185 34.529 31.4266 34.841 31.8374L46.905 21.7725C46.697 21.3617 46.385 21.0536 46.177 20.7455ZM40.145 15.6104C39.729 15.3023 39.313 15.0969 38.897 14.8915L30.993 28.5509C31.409 28.7563 31.929 29.0644 32.345 29.2698L40.145 15.6104ZM19.033 30.1942L6.86497 20.1293C6.34497 20.7455 5.82497 21.3617 5.30497 21.9779L17.369 32.0428C17.889 31.4266 18.409 30.8104 19.033 30.1942ZM27.353 27.5239C27.873 27.5239 28.393 27.6266 28.913 27.832L31.617 12.3239C31.097 12.2212 30.577 12.1185 30.057 12.0158L27.353 27.5239ZM202.385 37.5888C202.385 36.5617 202.177 35.5347 201.865 34.6104C201.553 33.7888 201.033 32.9671 200.409 32.3509C199.785 31.7347 198.953 31.2212 198.121 30.9131C197.185 30.605 196.145 30.3996 195.105 30.3996C194.065 30.3996 193.025 30.605 191.985 30.9131C191.049 31.2212 190.217 31.8374 189.593 32.4536C188.865 33.1725 188.345 33.9942 188.033 34.9185C187.617 35.9455 187.513 36.9725 187.513 37.9996C187.513 39.1293 187.721 40.1563 188.137 41.1834C188.553 42.1077 189.177 42.9293 189.905 43.6482C190.737 44.3671 191.673 44.8807 192.713 45.1888C193.857 45.5996 195.105 45.7023 196.353 45.7023C197.497 45.7023 198.537 45.5996 199.577 45.2915C200.513 45.0861 201.449 44.6752 202.281 44.1617L200.617 40.978C199.993 41.2861 199.265 41.4915 198.641 41.5942C198.017 41.6969 197.393 41.7996 196.769 41.7996C194.481 41.7996 192.401 40.9779 191.881 39.3347H202.177C202.281 38.7185 202.385 38.1023 202.385 37.5888ZM191.881 36.6644C192.297 34.7131 193.337 33.6861 195.105 33.6861C195.833 33.6861 196.665 33.8915 197.185 34.405C197.705 35.0212 198.121 35.7401 198.121 36.5617L191.881 36.6644ZM312.105 37.5888C312.105 36.5617 312.001 35.5347 311.585 34.6104C311.273 33.7888 310.753 32.9671 310.129 32.3509C309.505 31.7347 308.673 31.2212 307.841 30.9131C306.905 30.605 305.865 30.3996 304.825 30.3996C303.785 30.3996 302.745 30.605 301.705 30.9131C300.769 31.2212 299.937 31.8374 299.313 32.4536C298.585 33.1725 298.065 33.9942 297.753 34.9185C297.337 35.9455 297.233 36.9725 297.233 37.9996C297.233 39.1293 297.441 40.1563 297.857 41.1834C298.273 42.1077 298.897 42.9293 299.625 43.6482C300.457 44.3671 301.393 44.8807 302.433 45.1888C303.577 45.5996 304.825 45.7023 306.073 45.7023C307.217 45.7023 308.257 45.5996 309.401 45.2915C310.337 45.0861 311.273 44.6752 312.001 44.1617L310.337 40.978C309.713 41.2861 308.985 41.4915 308.361 41.5942C307.737 41.6969 307.113 41.7996 306.489 41.7996C304.201 41.7996 302.121 40.9779 301.601 39.3347H311.897C312.001 38.7185 312.105 38.1023 312.105 37.5888ZM301.601 36.6644C302.017 34.7131 303.057 33.6861 304.825 33.6861C305.553 33.6861 306.385 33.8915 306.905 34.405C307.425 35.0212 307.841 35.7401 307.841 36.5617L301.601 36.6644Z" fill="white"/>
</g>
<defs>
<clipPath id="clip0_197_17242">
<rect width="312" height="76" fill="white"/>
</clipPath>
</defs>
</svg>
