<svg width="642" height="650" viewBox="0 0 642 650" fill="none" xmlns="http://www.w3.org/2000/svg">
<circle cx="235.962" cy="413.784" r="234.967" stroke="#FAF8F3" stroke-width="1.9903"/>
<circle cx="457.819" cy="235.962" r="234.967" stroke="#FAF8F3" stroke-width="1.9903"/>
<g style="mix-blend-mode:hard-light">
<mask id="path-3-inside-1_2876_66478" fill="white">
<path fill-rule="evenodd" clip-rule="evenodd" d="M228.98 177.699C231.257 177.634 233.543 177.602 235.837 177.602C366.155 177.602 471.799 283.245 471.799 413.563C471.799 433.671 469.284 453.191 464.551 471.826C462.273 471.891 459.987 471.924 457.694 471.924C327.376 471.924 221.732 366.28 221.732 235.962C221.732 215.854 224.247 196.334 228.98 177.699Z"/>
</mask>
<path fill-rule="evenodd" clip-rule="evenodd" d="M228.98 177.699C231.257 177.634 233.543 177.602 235.837 177.602C366.155 177.602 471.799 283.245 471.799 413.563C471.799 433.671 469.284 453.191 464.551 471.826C462.273 471.891 459.987 471.924 457.694 471.924C327.376 471.924 221.732 366.28 221.732 235.962C221.732 215.854 224.247 196.334 228.98 177.699Z" fill="#FAF8F3"/>
<path d="M228.98 177.699L228.938 176.242L227.837 176.273L227.566 177.34L228.98 177.699ZM464.551 471.826L464.593 473.283L465.693 473.252L465.964 472.185L464.551 471.826ZM229.021 179.157C231.285 179.092 233.557 179.06 235.837 179.06V176.144C233.529 176.144 231.23 176.176 228.938 176.242L229.021 179.157ZM235.837 179.06C365.35 179.06 470.341 284.051 470.341 413.563H473.257C473.257 282.44 366.96 176.144 235.837 176.144V179.06ZM470.341 413.563C470.341 433.549 467.841 452.948 463.138 471.467L465.964 472.185C470.726 453.433 473.257 433.793 473.257 413.563H470.341ZM464.509 470.368C462.245 470.433 459.973 470.466 457.694 470.466V473.382C460.001 473.382 462.301 473.349 464.593 473.283L464.509 470.368ZM457.694 470.466C328.181 470.466 223.19 365.475 223.19 235.962H220.274C220.274 367.085 326.57 473.382 457.694 473.382V470.466ZM223.19 235.962C223.19 215.976 225.69 196.577 230.393 178.058L227.566 177.34C222.804 196.092 220.274 215.732 220.274 235.962H223.19Z" fill="#FAF8F3" mask="url(#path-3-inside-1_2876_66478)"/>
</g>
<path d="M81.0479 377.03C80.9679 376.223 80.6245 375.596 80.0178 375.15C79.4111 374.703 78.5877 374.48 77.5476 374.48C76.8409 374.48 76.2441 374.58 75.7574 374.78C75.2707 374.973 74.8974 375.243 74.6373 375.59C74.384 375.936 74.2573 376.33 74.2573 376.77C74.244 377.137 74.3206 377.457 74.4873 377.73C74.6607 378.003 74.8974 378.24 75.1974 378.44C75.4974 378.633 75.8441 378.803 76.2375 378.95C76.6308 379.09 77.0509 379.21 77.4976 379.31L79.3377 379.75C80.2311 379.95 81.0512 380.217 81.7979 380.55C82.5447 380.884 83.1914 381.294 83.7381 381.78C84.2848 382.267 84.7082 382.84 85.0082 383.5C85.3149 384.16 85.4716 384.917 85.4782 385.771C85.4716 387.024 85.1516 388.111 84.5182 389.031C83.8914 389.944 82.9847 390.654 81.7979 391.161C80.6178 391.661 79.1944 391.911 77.5276 391.911C75.8741 391.911 74.434 391.658 73.2072 391.151C71.9871 390.644 71.0337 389.894 70.347 388.901C69.6669 387.901 69.3102 386.664 69.2769 385.191H73.4672C73.5139 385.877 73.7106 386.451 74.0573 386.911C74.4107 387.364 74.8807 387.707 75.4674 387.941C76.0608 388.167 76.7308 388.281 77.4776 388.281C78.211 388.281 78.8477 388.174 79.3877 387.961C79.9344 387.747 80.3578 387.451 80.6578 387.071C80.9579 386.691 81.1079 386.254 81.1079 385.761C81.1079 385.301 80.9712 384.914 80.6978 384.601C80.4312 384.287 80.0378 384.02 79.5177 383.8C79.0044 383.58 78.3743 383.38 77.6276 383.2L75.3974 382.64C73.6706 382.22 72.3071 381.564 71.3071 380.67C70.307 379.777 69.8103 378.573 69.8169 377.06C69.8103 375.82 70.1403 374.736 70.807 373.81C71.4804 372.883 72.4038 372.159 73.5772 371.639C74.7507 371.119 76.0841 370.859 77.5776 370.859C79.0977 370.859 80.4245 371.119 81.5579 371.639C82.698 372.159 83.5848 372.883 84.2181 373.81C84.8515 374.736 85.1782 375.81 85.1982 377.03H81.0479ZM95.3552 376.26V379.46H86.1044V376.26H95.3552ZM88.2046 372.579H92.4649V386.901C92.4649 387.294 92.5249 387.601 92.645 387.821C92.765 388.034 92.9316 388.184 93.145 388.271C93.365 388.357 93.6184 388.401 93.9051 388.401C94.1051 388.401 94.3051 388.384 94.5051 388.351C94.7051 388.311 94.8585 388.281 94.9651 388.261L95.6352 391.431C95.4219 391.498 95.1218 391.574 94.7351 391.661C94.3484 391.754 93.8784 391.811 93.325 391.831C92.2983 391.871 91.3982 391.734 90.6248 391.421C89.858 391.108 89.2613 390.621 88.8346 389.961C88.4079 389.301 88.1979 388.467 88.2046 387.461V372.579ZM97.0039 391.621V376.26H101.134V378.94H101.294C101.574 377.987 102.044 377.267 102.704 376.78C103.364 376.286 104.125 376.04 104.985 376.04C105.198 376.04 105.428 376.053 105.675 376.08C105.921 376.106 106.138 376.143 106.325 376.19V379.97C106.125 379.91 105.848 379.857 105.495 379.81C105.141 379.763 104.818 379.74 104.525 379.74C103.898 379.74 103.338 379.877 102.844 380.15C102.358 380.417 101.971 380.79 101.684 381.27C101.404 381.75 101.264 382.304 101.264 382.93V391.621H97.0039ZM111.341 391.911C110.361 391.911 109.488 391.741 108.721 391.401C107.954 391.054 107.348 390.544 106.901 389.871C106.461 389.191 106.241 388.344 106.241 387.331C106.241 386.477 106.397 385.761 106.711 385.181C107.024 384.601 107.451 384.134 107.991 383.78C108.531 383.427 109.144 383.16 109.831 382.98C110.524 382.8 111.251 382.674 112.011 382.6C112.905 382.507 113.625 382.42 114.171 382.34C114.718 382.254 115.115 382.127 115.362 381.96C115.608 381.794 115.732 381.547 115.732 381.22V381.16C115.732 380.527 115.532 380.037 115.132 379.69C114.738 379.343 114.178 379.17 113.451 379.17C112.685 379.17 112.075 379.34 111.621 379.68C111.168 380.013 110.868 380.433 110.721 380.94L106.781 380.62C106.981 379.687 107.374 378.88 107.961 378.2C108.548 377.513 109.304 376.987 110.231 376.62C111.165 376.246 112.245 376.06 113.471 376.06C114.325 376.06 115.142 376.16 115.922 376.36C116.708 376.56 117.405 376.87 118.012 377.29C118.625 377.71 119.109 378.25 119.462 378.91C119.815 379.563 119.992 380.347 119.992 381.26V391.621H115.952V389.491H115.832C115.585 389.971 115.255 390.394 114.842 390.761C114.428 391.121 113.931 391.404 113.351 391.611C112.771 391.811 112.101 391.911 111.341 391.911ZM112.561 388.971C113.188 388.971 113.741 388.848 114.221 388.601C114.702 388.347 115.078 388.007 115.352 387.581C115.625 387.154 115.762 386.671 115.762 386.131V384.5C115.628 384.587 115.445 384.667 115.212 384.741C114.985 384.807 114.728 384.871 114.441 384.931C114.155 384.984 113.868 385.034 113.581 385.081C113.295 385.121 113.035 385.157 112.801 385.191C112.301 385.264 111.865 385.381 111.491 385.541C111.118 385.701 110.828 385.917 110.621 386.191C110.414 386.457 110.311 386.791 110.311 387.191C110.311 387.771 110.521 388.214 110.941 388.521C111.368 388.821 111.908 388.971 112.561 388.971ZM130.341 376.26V379.46H121.091V376.26H130.341ZM123.191 372.579H127.451V386.901C127.451 387.294 127.511 387.601 127.631 387.821C127.751 388.034 127.918 388.184 128.131 388.271C128.351 388.357 128.605 388.401 128.891 388.401C129.091 388.401 129.291 388.384 129.491 388.351C129.691 388.311 129.845 388.281 129.951 388.261L130.621 391.431C130.408 391.498 130.108 391.574 129.721 391.661C129.335 391.754 128.865 391.811 128.311 391.831C127.284 391.871 126.384 391.734 125.611 391.421C124.844 391.108 124.248 390.621 123.821 389.961C123.394 389.301 123.184 388.467 123.191 387.461V372.579ZM138.826 391.921C137.246 391.921 135.885 391.601 134.745 390.961C133.612 390.314 132.739 389.401 132.125 388.221C131.512 387.034 131.205 385.631 131.205 384.01C131.205 382.43 131.512 381.044 132.125 379.85C132.739 378.657 133.602 377.727 134.715 377.06C135.835 376.393 137.149 376.06 138.656 376.06C139.669 376.06 140.613 376.223 141.486 376.55C142.366 376.87 143.133 377.353 143.786 378C144.446 378.647 144.96 379.46 145.326 380.44C145.693 381.414 145.876 382.554 145.876 383.86V385.031H132.905V382.39H141.866C141.866 381.777 141.733 381.234 141.466 380.76C141.199 380.287 140.829 379.917 140.356 379.65C139.889 379.377 139.346 379.24 138.726 379.24C138.079 379.24 137.506 379.39 137.006 379.69C136.512 379.983 136.126 380.38 135.845 380.88C135.565 381.374 135.422 381.924 135.415 382.53V385.041C135.415 385.801 135.555 386.457 135.835 387.011C136.122 387.564 136.526 387.991 137.046 388.291C137.566 388.591 138.182 388.741 138.896 388.741C139.369 388.741 139.802 388.674 140.196 388.541C140.589 388.407 140.926 388.207 141.206 387.941C141.486 387.674 141.699 387.347 141.846 386.961L145.786 387.221C145.586 388.167 145.176 388.994 144.556 389.701C143.943 390.401 143.149 390.948 142.176 391.341C141.209 391.728 140.093 391.921 138.826 391.921ZM154.451 397.702C153.071 397.702 151.887 397.512 150.9 397.132C149.92 396.758 149.14 396.248 148.56 395.601C147.98 394.955 147.603 394.228 147.43 393.421L151.37 392.891C151.49 393.198 151.68 393.485 151.94 393.751C152.2 394.018 152.544 394.231 152.971 394.391C153.404 394.558 153.931 394.641 154.551 394.641C155.477 394.641 156.241 394.415 156.841 393.961C157.448 393.515 157.751 392.765 157.751 391.711V388.901H157.571C157.384 389.328 157.104 389.731 156.731 390.111C156.357 390.491 155.877 390.801 155.291 391.041C154.704 391.281 154.004 391.401 153.191 391.401C152.037 391.401 150.987 391.134 150.04 390.601C149.1 390.061 148.35 389.238 147.79 388.131C147.237 387.017 146.96 385.611 146.96 383.91C146.96 382.17 147.243 380.717 147.81 379.55C148.377 378.383 149.13 377.51 150.07 376.93C151.017 376.35 152.054 376.06 153.181 376.06C154.041 376.06 154.761 376.206 155.341 376.5C155.921 376.787 156.387 377.147 156.741 377.58C157.101 378.007 157.378 378.427 157.571 378.84H157.731V376.26H161.961V391.771C161.961 393.078 161.641 394.171 161.001 395.051C160.361 395.931 159.474 396.592 158.341 397.032C157.214 397.478 155.917 397.702 154.451 397.702ZM154.541 388.201C155.227 388.201 155.807 388.031 156.281 387.691C156.761 387.344 157.128 386.851 157.381 386.211C157.641 385.564 157.771 384.791 157.771 383.89C157.771 382.99 157.644 382.21 157.391 381.55C157.138 380.884 156.771 380.367 156.291 380C155.811 379.633 155.227 379.45 154.541 379.45C153.841 379.45 153.251 379.64 152.771 380.02C152.29 380.393 151.927 380.914 151.68 381.58C151.434 382.247 151.31 383.017 151.31 383.89C151.31 384.777 151.434 385.544 151.68 386.191C151.934 386.831 152.297 387.327 152.771 387.681C153.251 388.027 153.841 388.201 154.541 388.201ZM164.225 391.621V376.26H168.485V391.621H164.225ZM166.365 374.28C165.732 374.28 165.188 374.07 164.735 373.65C164.288 373.223 164.065 372.713 164.065 372.119C164.065 371.533 164.288 371.029 164.735 370.609C165.188 370.183 165.732 369.969 166.365 369.969C166.999 369.969 167.539 370.183 167.985 370.609C168.439 371.029 168.665 371.533 168.665 372.119C168.665 372.713 168.439 373.223 167.985 373.65C167.539 374.07 166.999 374.28 166.365 374.28ZM183.553 380.64L179.652 380.88C179.586 380.547 179.442 380.247 179.222 379.98C179.002 379.707 178.712 379.49 178.352 379.33C177.999 379.163 177.576 379.08 177.082 379.08C176.422 379.08 175.865 379.22 175.412 379.5C174.959 379.773 174.732 380.14 174.732 380.6C174.732 380.967 174.879 381.277 175.172 381.53C175.465 381.784 175.969 381.987 176.682 382.14L179.462 382.7C180.956 383.007 182.069 383.5 182.803 384.18C183.536 384.861 183.903 385.754 183.903 386.861C183.903 387.867 183.606 388.751 183.013 389.511C182.426 390.271 181.619 390.864 180.593 391.291C179.572 391.711 178.396 391.921 177.062 391.921C175.029 391.921 173.409 391.498 172.202 390.651C171.002 389.798 170.298 388.638 170.092 387.171L174.282 386.951C174.409 387.571 174.715 388.044 175.202 388.371C175.689 388.691 176.312 388.851 177.072 388.851C177.819 388.851 178.419 388.708 178.872 388.421C179.332 388.127 179.566 387.751 179.572 387.291C179.566 386.904 179.402 386.587 179.082 386.341C178.762 386.087 178.269 385.894 177.602 385.761L174.942 385.231C173.442 384.931 172.325 384.41 171.592 383.67C170.865 382.93 170.502 381.987 170.502 380.84C170.502 379.853 170.768 379.003 171.302 378.29C171.842 377.577 172.599 377.027 173.572 376.64C174.552 376.253 175.699 376.06 177.012 376.06C178.952 376.06 180.479 376.47 181.593 377.29C182.713 378.11 183.366 379.227 183.553 380.64ZM193.63 376.26V379.46H184.379V376.26H193.63ZM186.479 372.579H190.739V386.901C190.739 387.294 190.8 387.601 190.92 387.821C191.04 388.034 191.206 388.184 191.42 388.271C191.64 388.357 191.893 388.401 192.18 388.401C192.38 388.401 192.58 388.384 192.78 388.351C192.98 388.311 193.133 388.281 193.24 388.261L193.91 391.431C193.696 391.498 193.396 391.574 193.01 391.661C192.623 391.754 192.153 391.811 191.6 391.831C190.573 391.871 189.673 391.734 188.899 391.421C188.133 391.108 187.536 390.621 187.109 389.961C186.682 389.301 186.472 388.467 186.479 387.461V372.579ZM207.867 380.64L203.967 380.88C203.9 380.547 203.757 380.247 203.537 379.98C203.317 379.707 203.027 379.49 202.667 379.33C202.313 379.163 201.89 379.08 201.397 379.08C200.736 379.08 200.18 379.22 199.726 379.5C199.273 379.773 199.046 380.14 199.046 380.6C199.046 380.967 199.193 381.277 199.486 381.53C199.78 381.784 200.283 381.987 200.996 382.14L203.777 382.7C205.27 383.007 206.384 383.5 207.117 384.18C207.85 384.861 208.217 385.754 208.217 386.861C208.217 387.867 207.92 388.751 207.327 389.511C206.74 390.271 205.934 390.864 204.907 391.291C203.887 391.711 202.71 391.921 201.376 391.921C199.343 391.921 197.723 391.498 196.516 390.651C195.316 389.798 194.613 388.638 194.406 387.171L198.596 386.951C198.723 387.571 199.03 388.044 199.516 388.371C200.003 388.691 200.626 388.851 201.386 388.851C202.133 388.851 202.733 388.708 203.187 388.421C203.647 388.127 203.88 387.751 203.887 387.291C203.88 386.904 203.717 386.587 203.397 386.341C203.077 386.087 202.583 385.894 201.917 385.761L199.256 385.231C197.756 384.931 196.639 384.41 195.906 383.67C195.179 382.93 194.816 381.987 194.816 380.84C194.816 379.853 195.083 379.003 195.616 378.29C196.156 377.577 196.913 377.027 197.886 376.64C198.866 376.253 200.013 376.06 201.326 376.06C203.267 376.06 204.793 376.47 205.907 377.29C207.027 378.11 207.68 379.227 207.867 380.64Z" fill="#FAF8F3"/>
<path d="M467.027 245.027H459.766V224.546H467.087C469.147 224.546 470.921 224.956 472.407 225.776C473.894 226.589 475.038 227.759 475.838 229.286C476.644 230.813 477.048 232.64 477.048 234.766C477.048 236.9 476.644 238.733 475.838 240.267C475.038 241.8 473.888 242.977 472.387 243.797C470.894 244.617 469.107 245.027 467.027 245.027ZM464.097 241.317H466.847C468.127 241.317 469.204 241.09 470.077 240.637C470.957 240.177 471.617 239.467 472.057 238.507C472.504 237.54 472.727 236.293 472.727 234.766C472.727 233.253 472.504 232.016 472.057 231.056C471.617 230.096 470.961 229.389 470.087 228.936C469.214 228.483 468.137 228.256 466.857 228.256H464.097V241.317ZM486.05 245.327C484.47 245.327 483.109 245.007 481.969 244.367C480.836 243.721 479.963 242.807 479.349 241.627C478.736 240.44 478.429 239.037 478.429 237.417C478.429 235.837 478.736 234.45 479.349 233.256C479.963 232.063 480.826 231.133 481.939 230.466C483.059 229.799 484.373 229.466 485.88 229.466C486.893 229.466 487.837 229.629 488.71 229.956C489.59 230.276 490.357 230.759 491.01 231.406C491.67 232.053 492.184 232.866 492.55 233.846C492.917 234.82 493.1 235.96 493.1 237.267V238.437H480.129V235.797H489.09C489.09 235.183 488.957 234.64 488.69 234.166C488.423 233.693 488.053 233.323 487.58 233.056C487.113 232.783 486.57 232.646 485.95 232.646C485.303 232.646 484.73 232.796 484.23 233.096C483.736 233.39 483.349 233.786 483.069 234.286C482.789 234.78 482.646 235.33 482.639 235.937V238.447C482.639 239.207 482.779 239.864 483.059 240.417C483.346 240.97 483.75 241.397 484.27 241.697C484.79 241.997 485.406 242.147 486.12 242.147C486.593 242.147 487.026 242.08 487.42 241.947C487.813 241.814 488.15 241.614 488.43 241.347C488.71 241.08 488.923 240.754 489.07 240.367L493.01 240.627C492.81 241.574 492.4 242.4 491.78 243.107C491.167 243.807 490.373 244.354 489.4 244.747C488.433 245.134 487.316 245.327 486.05 245.327ZM507.535 234.046L503.635 234.286C503.568 233.953 503.425 233.653 503.205 233.386C502.985 233.113 502.695 232.896 502.335 232.736C501.981 232.57 501.558 232.486 501.065 232.486C500.405 232.486 499.848 232.626 499.394 232.906C498.941 233.18 498.714 233.546 498.714 234.006C498.714 234.373 498.861 234.683 499.154 234.936C499.448 235.19 499.951 235.393 500.665 235.547L503.445 236.107C504.938 236.413 506.052 236.907 506.785 237.587C507.518 238.267 507.885 239.16 507.885 240.267C507.885 241.274 507.588 242.157 506.995 242.917C506.408 243.677 505.602 244.271 504.575 244.697C503.555 245.117 502.378 245.327 501.045 245.327C499.011 245.327 497.391 244.904 496.184 244.057C494.984 243.204 494.281 242.044 494.074 240.577L498.264 240.357C498.391 240.977 498.698 241.45 499.184 241.777C499.671 242.097 500.295 242.257 501.055 242.257C501.801 242.257 502.401 242.114 502.855 241.827C503.315 241.534 503.548 241.157 503.555 240.697C503.548 240.31 503.385 239.994 503.065 239.747C502.745 239.494 502.251 239.3 501.585 239.167L498.924 238.637C497.424 238.337 496.308 237.817 495.574 237.077C494.847 236.337 494.484 235.393 494.484 234.246C494.484 233.26 494.751 232.41 495.284 231.696C495.824 230.983 496.581 230.433 497.554 230.046C498.534 229.659 499.681 229.466 500.995 229.466C502.935 229.466 504.462 229.876 505.575 230.696C506.695 231.516 507.348 232.633 507.535 234.046ZM509.441 245.027V229.666H513.702V245.027H509.441ZM511.582 227.686C510.948 227.686 510.405 227.476 509.951 227.056C509.505 226.629 509.281 226.119 509.281 225.526C509.281 224.939 509.505 224.436 509.951 224.016C510.405 223.589 510.948 223.376 511.582 223.376C512.215 223.376 512.755 223.589 513.202 224.016C513.655 224.436 513.882 224.939 513.882 225.526C513.882 226.119 513.655 226.629 513.202 227.056C512.755 227.476 512.215 227.686 511.582 227.686ZM522.909 251.108C521.528 251.108 520.345 250.918 519.358 250.538C518.378 250.164 517.598 249.654 517.018 249.008C516.438 248.361 516.061 247.634 515.888 246.827L519.828 246.297C519.948 246.604 520.138 246.891 520.398 247.158C520.658 247.424 521.002 247.638 521.428 247.798C521.862 247.964 522.389 248.048 523.009 248.048C523.935 248.048 524.699 247.821 525.299 247.368C525.906 246.921 526.209 246.171 526.209 245.117V242.307H526.029C525.842 242.734 525.562 243.137 525.189 243.517C524.815 243.897 524.335 244.207 523.749 244.447C523.162 244.687 522.462 244.807 521.649 244.807C520.495 244.807 519.445 244.541 518.498 244.007C517.558 243.467 516.808 242.644 516.248 241.537C515.695 240.424 515.418 239.017 515.418 237.317C515.418 235.577 515.701 234.123 516.268 232.956C516.835 231.79 517.588 230.916 518.528 230.336C519.475 229.756 520.512 229.466 521.639 229.466C522.499 229.466 523.219 229.613 523.799 229.906C524.379 230.193 524.845 230.553 525.199 230.986C525.559 231.413 525.836 231.833 526.029 232.246H526.189V229.666H530.419V245.177C530.419 246.484 530.099 247.578 529.459 248.458C528.819 249.338 527.932 249.998 526.799 250.438C525.672 250.885 524.375 251.108 522.909 251.108ZM522.999 241.607C523.685 241.607 524.265 241.437 524.739 241.097C525.219 240.75 525.586 240.257 525.839 239.617C526.099 238.97 526.229 238.197 526.229 237.297C526.229 236.397 526.102 235.617 525.849 234.956C525.596 234.29 525.229 233.773 524.749 233.406C524.269 233.04 523.685 232.856 522.999 232.856C522.299 232.856 521.709 233.046 521.228 233.426C520.748 233.8 520.385 234.32 520.138 234.986C519.892 235.653 519.768 236.423 519.768 237.297C519.768 238.183 519.892 238.95 520.138 239.597C520.392 240.237 520.755 240.734 521.228 241.087C521.709 241.434 522.299 241.607 522.999 241.607ZM536.943 236.147V245.027H532.683V229.666H536.743V232.376H536.923C537.263 231.483 537.833 230.776 538.634 230.256C539.434 229.729 540.404 229.466 541.544 229.466C542.611 229.466 543.541 229.699 544.334 230.166C545.127 230.633 545.744 231.3 546.184 232.166C546.624 233.026 546.844 234.053 546.844 235.247V245.027H542.584V236.007C542.591 235.067 542.351 234.333 541.864 233.806C541.377 233.273 540.707 233.006 539.854 233.006C539.28 233.006 538.774 233.13 538.334 233.376C537.9 233.623 537.56 233.983 537.313 234.456C537.073 234.923 536.95 235.487 536.943 236.147ZM556.076 245.327C554.496 245.327 553.136 245.007 551.996 244.367C550.862 243.721 549.989 242.807 549.376 241.627C548.762 240.44 548.455 239.037 548.455 237.417C548.455 235.837 548.762 234.45 549.376 233.256C549.989 232.063 550.852 231.133 551.966 230.466C553.086 229.799 554.399 229.466 555.906 229.466C556.92 229.466 557.863 229.629 558.736 229.956C559.616 230.276 560.383 230.759 561.037 231.406C561.697 232.053 562.21 232.866 562.577 233.846C562.943 234.82 563.127 235.96 563.127 237.267V238.437H550.156V235.797H559.116C559.116 235.183 558.983 234.64 558.716 234.166C558.45 233.693 558.08 233.323 557.606 233.056C557.14 232.783 556.596 232.646 555.976 232.646C555.329 232.646 554.756 232.796 554.256 233.096C553.763 233.39 553.376 233.786 553.096 234.286C552.816 234.78 552.672 235.33 552.666 235.937V238.447C552.666 239.207 552.806 239.864 553.086 240.417C553.373 240.97 553.776 241.397 554.296 241.697C554.816 241.997 555.433 242.147 556.146 242.147C556.619 242.147 557.053 242.08 557.446 241.947C557.84 241.814 558.176 241.614 558.456 241.347C558.736 241.08 558.95 240.754 559.096 240.367L563.037 240.627C562.837 241.574 562.427 242.4 561.807 243.107C561.193 243.807 560.4 244.354 559.426 244.747C558.46 245.134 557.343 245.327 556.076 245.327ZM564.78 245.027V229.666H568.911V232.346H569.071C569.351 231.393 569.821 230.673 570.481 230.186C571.141 229.693 571.901 229.446 572.761 229.446C572.974 229.446 573.204 229.459 573.451 229.486C573.698 229.513 573.915 229.549 574.101 229.596V233.376C573.901 233.316 573.625 233.263 573.271 233.216C572.918 233.17 572.594 233.146 572.301 233.146C571.674 233.146 571.114 233.283 570.621 233.556C570.134 233.823 569.748 234.196 569.461 234.676C569.181 235.157 569.041 235.71 569.041 236.337V245.027H564.78ZM587.958 234.046L584.058 234.286C583.991 233.953 583.848 233.653 583.628 233.386C583.408 233.113 583.118 232.896 582.758 232.736C582.405 232.57 581.981 232.486 581.488 232.486C580.828 232.486 580.271 232.626 579.818 232.906C579.364 233.18 579.138 233.546 579.138 234.006C579.138 234.373 579.284 234.683 579.578 234.936C579.871 235.19 580.375 235.393 581.088 235.547L583.868 236.107C585.362 236.413 586.475 236.907 587.208 237.587C587.942 238.267 588.309 239.16 588.309 240.267C588.309 241.274 588.012 242.157 587.418 242.917C586.832 243.677 586.025 244.271 584.998 244.697C583.978 245.117 582.801 245.327 581.468 245.327C579.434 245.327 577.814 244.904 576.608 244.057C575.407 243.204 574.704 242.044 574.497 240.577L578.688 240.357C578.814 240.977 579.121 241.45 579.608 241.777C580.094 242.097 580.718 242.257 581.478 242.257C582.225 242.257 582.825 242.114 583.278 241.827C583.738 241.534 583.971 241.157 583.978 240.697C583.971 240.31 583.808 239.994 583.488 239.747C583.168 239.494 582.675 239.3 582.008 239.167L579.348 238.637C577.848 238.337 576.731 237.817 575.997 237.077C575.271 236.337 574.907 235.393 574.907 234.246C574.907 233.26 575.174 232.41 575.707 231.696C576.247 230.983 577.004 230.433 577.978 230.046C578.958 229.659 580.104 229.466 581.418 229.466C583.358 229.466 584.885 229.876 585.998 230.696C587.118 231.516 587.772 232.633 587.958 234.046Z" fill="#FAF8F3"/>
<path d="M310.226 314.292H314.556V327.593C314.556 329.086 314.199 330.393 313.486 331.513C312.779 332.633 311.789 333.507 310.516 334.133C309.242 334.753 307.759 335.063 306.065 335.063C304.365 335.063 302.878 334.753 301.605 334.133C300.332 333.507 299.341 332.633 298.635 331.513C297.928 330.393 297.575 329.086 297.575 327.593V314.292H301.905V327.223C301.905 328.003 302.075 328.696 302.415 329.303C302.762 329.91 303.248 330.386 303.875 330.733C304.502 331.08 305.232 331.253 306.065 331.253C306.905 331.253 307.636 331.08 308.256 330.733C308.882 330.386 309.366 329.91 309.706 329.303C310.052 328.696 310.226 328.003 310.226 327.223V314.292ZM321.173 325.893V334.773H316.912V319.412H320.973V322.122H321.153C321.493 321.229 322.063 320.522 322.863 320.002C323.663 319.475 324.633 319.212 325.773 319.212C326.84 319.212 327.77 319.445 328.563 319.912C329.357 320.379 329.973 321.046 330.414 321.912C330.854 322.772 331.074 323.799 331.074 324.993V334.773H326.813V325.753C326.82 324.813 326.58 324.079 326.093 323.552C325.606 323.019 324.936 322.752 324.083 322.752C323.51 322.752 323.003 322.876 322.563 323.122C322.129 323.369 321.789 323.729 321.543 324.203C321.303 324.669 321.179 325.233 321.173 325.893ZM333.305 334.773V319.412H337.565V334.773H333.305ZM335.445 317.432C334.812 317.432 334.268 317.222 333.815 316.802C333.368 316.375 333.145 315.865 333.145 315.272C333.145 314.685 333.368 314.182 333.815 313.762C334.268 313.335 334.812 313.122 335.445 313.122C336.078 313.122 336.618 313.335 337.065 313.762C337.519 314.182 337.745 314.685 337.745 315.272C337.745 315.865 337.519 316.375 337.065 316.802C336.618 317.222 336.078 317.432 335.445 317.432ZM346.792 335.073C345.219 335.073 343.865 334.74 342.732 334.073C341.605 333.4 340.738 332.467 340.132 331.273C339.531 330.08 339.231 328.706 339.231 327.153C339.231 325.579 339.535 324.199 340.142 323.012C340.755 321.819 341.625 320.889 342.752 320.222C343.879 319.549 345.219 319.212 346.772 319.212C348.112 319.212 349.286 319.455 350.292 319.942C351.299 320.429 352.096 321.112 352.683 321.992C353.269 322.872 353.593 323.906 353.653 325.093H349.632C349.519 324.326 349.219 323.709 348.732 323.242C348.252 322.769 347.622 322.532 346.842 322.532C346.182 322.532 345.605 322.712 345.112 323.072C344.625 323.426 344.245 323.943 343.972 324.623C343.699 325.303 343.562 326.126 343.562 327.093C343.562 328.073 343.695 328.906 343.962 329.593C344.235 330.28 344.619 330.803 345.112 331.163C345.605 331.523 346.182 331.703 346.842 331.703C347.329 331.703 347.766 331.603 348.152 331.403C348.546 331.203 348.869 330.913 349.122 330.533C349.382 330.146 349.552 329.683 349.632 329.143H353.653C353.586 330.316 353.266 331.35 352.693 332.243C352.126 333.13 351.342 333.823 350.342 334.323C349.342 334.823 348.159 335.073 346.792 335.073ZM362.194 335.073C360.641 335.073 359.298 334.743 358.164 334.083C357.037 333.417 356.167 332.49 355.554 331.303C354.941 330.11 354.634 328.726 354.634 327.153C354.634 325.566 354.941 324.179 355.554 322.992C356.167 321.799 357.037 320.872 358.164 320.212C359.298 319.545 360.641 319.212 362.194 319.212C363.748 319.212 365.088 319.545 366.215 320.212C367.348 320.872 368.222 321.799 368.835 322.992C369.448 324.179 369.755 325.566 369.755 327.153C369.755 328.726 369.448 330.11 368.835 331.303C368.222 332.49 367.348 333.417 366.215 334.083C365.088 334.743 363.748 335.073 362.194 335.073ZM362.214 331.773C362.921 331.773 363.511 331.573 363.985 331.173C364.458 330.766 364.815 330.213 365.055 329.513C365.301 328.813 365.425 328.016 365.425 327.123C365.425 326.229 365.301 325.433 365.055 324.733C364.815 324.033 364.458 323.479 363.985 323.072C363.511 322.666 362.921 322.462 362.214 322.462C361.501 322.462 360.901 322.666 360.414 323.072C359.934 323.479 359.571 324.033 359.324 324.733C359.084 325.433 358.964 326.229 358.964 327.123C358.964 328.016 359.084 328.813 359.324 329.513C359.571 330.213 359.934 330.766 360.414 331.173C360.901 331.573 361.501 331.773 362.214 331.773ZM371.399 334.773V319.412H375.529V322.092H375.689C375.969 321.139 376.439 320.419 377.099 319.932C377.759 319.439 378.519 319.192 379.38 319.192C379.593 319.192 379.823 319.205 380.07 319.232C380.316 319.259 380.533 319.295 380.72 319.342V323.122C380.52 323.062 380.243 323.009 379.89 322.962C379.536 322.916 379.213 322.892 378.919 322.892C378.293 322.892 377.733 323.029 377.239 323.302C376.753 323.569 376.366 323.943 376.079 324.423C375.799 324.903 375.659 325.456 375.659 326.083V334.773H371.399ZM386.056 325.893V334.773H381.796V319.412H385.856V322.122H386.036C386.376 321.229 386.946 320.522 387.746 320.002C388.546 319.475 389.516 319.212 390.657 319.212C391.723 319.212 392.653 319.445 393.447 319.912C394.24 320.379 394.857 321.046 395.297 321.912C395.737 322.772 395.957 323.799 395.957 324.993V334.773H391.697V325.753C391.703 324.813 391.463 324.079 390.977 323.552C390.49 323.019 389.82 322.752 388.966 322.752C388.393 322.752 387.886 322.876 387.446 323.122C387.013 323.369 386.673 323.729 386.426 324.203C386.186 324.669 386.063 325.233 386.056 325.893Z" fill="#E63946"/>
</svg>
