<svg width="43" height="41" viewBox="0 0 43 41" fill="none" xmlns="http://www.w3.org/2000/svg">
<path opacity="0.36" d="M19.1465 0H22.8167V14.7507H19.1465V0Z" fill="white"/>
<path opacity="0.84" d="M15.8117 22.886L18.4025 25.4925L8.03948 35.9188L5.44873 33.3122L15.8117 22.886Z" fill="white"/>
<path opacity="0.2" d="M33.9274 4.63611L36.5182 7.24266L26.1552 17.6689L23.5645 15.0623L33.9274 4.63611Z" fill="white"/>
<path opacity="0.76" d="M15.1983 20.6953L16.5918 24.0917L3.04926 29.7393L1.65576 26.3428L15.1983 20.6953Z" fill="white"/>
<path opacity="0.12" d="M38.8873 10.8236L40.2808 14.22L26.7382 19.8676L25.3447 16.4711L38.8873 10.8236Z" fill="white"/>
<path opacity="0.92" d="M17.1836 24.6862L20.5594 26.0882L14.9461 39.7133L11.5703 38.3113L17.1836 24.6862Z" fill="white"/>
<path opacity="0.28" d="M26.9956 0.855835L30.3714 2.25785L24.7581 15.883L21.3823 14.481L26.9956 0.855835Z" fill="white"/>
<path opacity="0.68" d="M15.4918 18.4269V22.1195H0.830566V18.4269H15.4918Z" fill="white"/>
<path opacity="0.04" d="M41.1227 18.4269V22.1195H26.4614V18.4269H41.1227Z" fill="white"/>
<path opacity="0.52" d="M18.3815 15.0623L15.7907 17.6689L5.42773 7.24266L8.01847 4.63611L18.3815 15.0623Z" fill="white"/>
<path opacity="0.44" d="M20.5765 14.4613L17.2007 15.8633L11.5874 2.2381L14.9632 0.855835L20.5765 14.4613Z" fill="white"/>
<path opacity="0.6" d="M16.6109 16.4498L15.2173 19.8462L1.6748 14.1987L3.06832 10.8022L16.6109 16.4498Z" fill="white"/>
<path d="M19.0493 40.5499L19.1475 25.7991H22.8177L22.8373 27.2801C23.2691 26.8062 23.7205 26.4113 24.1916 26.1151C24.6822 25.8189 25.2318 25.6609 25.8402 25.6609C26.8412 25.6609 27.744 25.8781 28.5683 26.2928C29.3927 26.7075 30.1189 27.2999 30.7077 28.07C31.2965 27.2999 32.0227 26.7075 32.847 26.2928C33.6713 25.8781 34.5938 25.6609 35.5751 25.6609C36.8313 25.6609 37.95 25.9768 38.951 26.6087C39.9519 27.2406 40.737 28.0897 41.3062 29.1363C41.8754 30.1829 42.1698 31.3479 42.1698 32.6315V40.5301H38.5977V32.6315C38.5977 31.9996 38.4799 31.4467 38.2248 30.9332C37.9696 30.4198 37.6163 30.0051 37.1649 29.7089C36.7135 29.4127 36.1836 29.2548 35.5948 29.2548C35.006 29.2548 34.476 29.4127 34.005 29.7089C33.5536 30.0051 33.1807 30.4198 32.9255 30.9332C32.6704 31.4269 32.533 31.9996 32.533 32.6315V40.5301H28.9609V32.6315C28.9609 31.9996 28.8235 31.4467 28.5487 30.9332C28.2936 30.4198 27.9207 30.0051 27.4496 29.7089C26.9982 29.4127 26.4683 29.2548 25.8795 29.2548C25.3103 29.2548 24.8 29.4128 24.3486 29.7287C23.8972 30.0446 23.5242 30.4593 23.2691 30.9727C23.0139 31.4862 22.8766 32.0588 22.8766 32.6907V40.5499H19.0493Z" fill="white"/>
</svg>
