<svg width="100" height="100" viewBox="0 0 100 100" fill="none" xmlns="http://www.w3.org/2000/svg">
<path d="M72.2453 81.327C72.126 79.2869 71.9588 73.4616 72.2453 66.4816C72.5318 59.5017 79.961 51.8316 79.961 38.0931C79.0755 24.6802 67.4379 19.6883 61.8275 18.9178C46.2984 16.7365 38.8432 29.759 38.0619 39.5582L32.18 52.5299C32.0871 52.7348 32.0391 52.9572 32.0391 53.1821V53.1821C32.0391 54.0544 32.7462 54.7616 33.6185 54.7616H37.8014V63.2586C37.8014 66.7288 40.6145 69.5419 44.0847 69.5419V69.5419" stroke="#FAF8F3" stroke-width="2"/>
<path d="M27.1233 81.0039C27.2329 78.985 27.3863 73.2202 27.1233 66.3128C26.8603 59.4054 20.0391 51.8151 20.0391 38.2194C20.8521 24.9459 31.5373 20.0059 36.6885 19.2434C50.9467 17.0848 57.7918 29.9719 58.5092 39.6693L63.9153 52.5196C63.997 52.7138 64.0391 52.9223 64.0391 53.1329V53.1329C64.0391 54.0065 63.3309 54.7146 62.4574 54.7146H58.7483V63.5722C58.7483 66.7584 56.1654 69.3413 52.9793 69.3413V69.3413V81.0039" stroke="#FAF8F3" stroke-width="2"/>
<path d="M46.624 40.5664H53.5909" stroke="#FAF8F3" stroke-width="2"/>
</svg>
