<svg width="100" height="100" viewBox="0 0 100 100" fill="none" xmlns="http://www.w3.org/2000/svg">
<path d="M26.6006 48.8267C29.0774 43.2586 37.4723 32.2788 51.2379 32.9046C65.0036 33.5303 72.9143 43.78 75.149 48.8267C73.1327 53.9847 66.5039 61.7795 57 64.1513" stroke="#FAF8F3" stroke-width="2"/>
<path d="M18.0625 46.1363C21.3212 38.8139 32.3664 24.3749 50.4778 25.1978C68.5892 26.0206 78.9973 39.4996 81.9375 46.1363" stroke="#FAF8F3" stroke-width="2"/>
<path d="M15 37.0547C18.5712 29.7226 30.6755 15.2645 50.5236 16.0885C70.3717 16.9124 81.7779 30.4093 85 37.0547" stroke="#FAF8F3" stroke-width="2"/>
<path d="M50.847 70.9399V60.6587C58.9477 60.6587 62.2501 53.0024 62.2501 49.5024C62.2501 44.3944 59.6149 38.2185 51.4616 37.9869C42.5933 37.735 39.3906 44.9207 38.9844 49.5024" stroke="#FAF8F3" stroke-width="2"/>
<circle cx="50.9032" cy="48.8241" r="3.80456" stroke="#FAF8F3" stroke-width="2"/>
<circle cx="50.875" cy="81.3242" r="1.625" stroke="#FAF8F3" stroke-width="2"/>
</svg>
