<svg width="100" height="100" viewBox="0 0 100 100" fill="none" xmlns="http://www.w3.org/2000/svg">
<path d="M56.4011 38.8968C55.6608 37.4598 53.3443 34.5859 50.0002 34.5859C45.82 34.5859 43.4686 37.9823 43.338 38.8968C43.2335 39.6283 43.2944 48.1716 43.338 52.3518" stroke="#FAF8F3" stroke-width="1.9903"/>
<path d="M60.8425 56.0661C62.2794 55.3259 65.1533 53.0094 65.1533 49.6652C65.1533 45.485 61.7569 43.1336 60.8425 43.003C60.111 42.8985 51.5677 42.9595 47.3875 43.003" stroke="#FAF8F3" stroke-width="1.9903"/>
<path d="M43.2073 61.6267C43.9476 63.0636 46.2641 65.9375 49.6082 65.9375C53.7884 65.9375 56.1398 62.5411 56.2704 61.6267C56.3749 60.8951 56.314 52.3519 56.2704 48.1717" stroke="#FAF8F3" stroke-width="1.9903"/>
<path d="M39.1575 43.9925C37.7206 44.7327 34.8467 47.0492 34.8467 50.3934C34.8467 54.5736 38.2431 56.9249 39.1575 57.0556C39.889 57.1601 48.4323 57.0991 52.6125 57.0556" stroke="#FAF8F3" stroke-width="1.9903"/>
<circle cx="49.8695" cy="26.3559" r="4.35587" stroke="#FAF8F3" stroke-width="2"/>
<circle cx="49.8695" cy="73.6449" r="4.35587" stroke="#FAF8F3" stroke-width="2"/>
<circle cx="73.644" cy="49.8676" r="4.35587" stroke="#FAF8F3" stroke-width="2"/>
<circle cx="26.3559" cy="49.8676" r="4.35587" stroke="#FAF8F3" stroke-width="2"/>
</svg>
