<svg width="45" height="45" viewBox="0 0 45 45" fill="none" xmlns="http://www.w3.org/2000/svg">
<circle r="2.38259" transform="matrix(-1.19249e-08 -1 -1 1.19249e-08 22.9795 5.13303)" fill="#E63946"/>
<circle r="2.38259" transform="matrix(-1.19249e-08 -1 -1 1.19249e-08 22.9795 14.0764)" fill="#E63946"/>
<circle r="2.38259" transform="matrix(-1.19249e-08 -1 -1 1.19249e-08 22.9795 23.0178)" fill="#E63946"/>
<circle r="2.38259" transform="matrix(-1.19249e-08 -1 -1 1.19249e-08 22.9795 31.9612)" fill="#E63946"/>
<circle r="2.38259" transform="matrix(-1.19249e-08 -1 -1 1.19249e-08 22.9795 40.9045)" fill="#E63946"/>
<circle r="2.38259" transform="matrix(-1 5.56362e-08 5.56363e-08 1 4.67722 23.0154)" fill="#E63946"/>
<circle r="2.38259" transform="matrix(-1 5.56362e-08 5.56363e-08 1 13.6201 23.0154)" fill="#E63946"/>
<circle r="2.38259" transform="matrix(-1 5.56363e-08 5.56363e-08 1 22.563 23.0154)" fill="#E63946"/>
<circle r="2.38259" transform="matrix(-1 5.56363e-08 5.56363e-08 1 31.4966 23.0154)" fill="#E63946"/>
<circle r="2.38259" transform="matrix(-1 5.56363e-08 5.56363e-08 1 40.4477 23.0154)" fill="#E63946"/>
<circle r="2.38259" transform="matrix(-0.707107 0.707107 0.707107 0.707107 9.9126 35.6703)" fill="#E63946"/>
<circle r="2.38259" transform="matrix(-0.707107 0.707107 0.707107 0.707107 16.2407 29.3422)" fill="#E63946"/>
<circle r="2.38259" transform="matrix(-0.707107 0.707107 0.707107 0.707107 22.5688 23.0218)" fill="#E63946"/>
<circle r="2.38259" transform="matrix(-0.707107 0.707107 0.707107 0.707107 28.8877 16.6937)" fill="#E63946"/>
<circle r="2.38259" transform="matrix(-0.707107 0.707107 0.707107 0.707107 35.2075 10.3734)" fill="#E63946"/>
<circle r="2.38259" transform="matrix(0.707107 0.707107 0.707107 -0.707107 35.2811 35.5879)" fill="#E63946"/>
<circle r="2.38259" transform="matrix(0.707107 0.707107 0.707107 -0.707107 28.953 29.2676)" fill="#E63946"/>
<circle r="2.38259" transform="matrix(0.707107 0.707107 0.707107 -0.707107 22.6332 22.9395)" fill="#E63946"/>
<circle r="2.38259" transform="matrix(0.707107 0.707107 0.707107 -0.707107 16.305 16.6113)" fill="#E63946"/>
<circle r="2.38259" transform="matrix(0.707107 0.707107 0.707107 -0.707107 9.9862 10.3008)" fill="#E63946"/>
</svg>
