<?xml version="1.0" encoding="utf-8"?>
<!-- Generator: Adobe Illustrator 26.0.3, SVG Export Plug-In . SVG Version: 6.00 Build 0)  -->
<svg version="1.1" id="Layer_1" xmlns="http://www.w3.org/2000/svg" xmlns:xlink="http://www.w3.org/1999/xlink" x="0px" y="0px"
	 viewBox="0 0 2543.1 2539.3" style="enable-background:new 0 0 2543.1 2539.3;" xml:space="preserve">
<style type="text/css">
	.st0{fill:none;stroke:#1D3557;stroke-miterlimit:10;}
</style>
<polygon class="st0" points="2542.5,1059 2481.2,829.9 1673.1,1046.4 2267.6,451.9 2100,284.3 1509.6,874.7 1727.2,62.7 1498.1,1.4 
	1271.8,846 1045.3,0.6 816.2,62 1034.2,875.2 442.4,283.4 274.7,451.1 870.1,1046.5 62,829.9 0.6,1059 777.2,1267 0.6,1475.1 
	62,1704.1 870.1,1487.6 274.7,2083 442.4,2250.6 1034.2,1658.8 816.2,2472.1 1045.3,2533.4 1261.5,1726.4 1479.2,2538.7 
	1708.2,2477.4 1491.6,1668.8 2086.7,2263.9 2254.4,2096.3 1662.1,1504 2475.9,1722.1 2537.3,1493 1729.9,1276.7 "/>
</svg>
