<?xml version="1.0" encoding="utf-8"?>
<!-- Generator: Adobe Illustrator 26.0.3, SVG Export Plug-In . SVG Version: 6.00 Build 0)  -->
<svg version="1.1" id="Layer_1" xmlns="http://www.w3.org/2000/svg" xmlns:xlink="http://www.w3.org/1999/xlink" x="0px" y="0px"
	 viewBox="0 0 2543 2538" style="enable-background:new 0 0 2543 2538;" xml:space="preserve">
<style type="text/css">
	.st0{fill:#1D3557;}
</style>
<polygon class="st0" points="2542,1057.8 2480.7,828.8 1672.6,1045.3 2267.1,450.8 2099.5,283.2 1509.1,873.6 1726.7,61.6 
	1497.6,0.3 1271.3,844.9 1044.8,-0.5 815.7,60.9 1033.7,874.1 441.9,282.3 274.2,450 869.6,1045.3 61.5,828.8 0.1,1057.8 
	776.7,1265.9 0.1,1474 61.5,1703 869.6,1486.5 274.2,2081.9 441.9,2249.5 1033.7,1657.7 815.7,2471 1044.8,2532.3 1261,1725.3 
	1478.7,2537.6 1707.7,2476.2 1491.1,1667.7 2086.2,2262.8 2253.9,2095.1 1661.6,1502.9 2475.4,1720.9 2536.8,1491.9 1729.4,1275.6 
	"/>
</svg>
